<svg width="257" height="164" viewBox="0 0 257 164" fill="none" xmlns="http://www.w3.org/2000/svg">
<g opacity="0.25">
<rect x="47.1992" y="59.7275" width="177.683" height="20.8274" rx="10.4137" fill="#D2D4D8"/>
<rect x="32.8789" y="143.037" width="133.425" height="20.8274" rx="10.4137" fill="#D2D4D8"/>
<rect x="0.988281" y="18.0723" width="133.425" height="20.8274" rx="10.4137" fill="#D2D4D8"/>
<rect x="158.496" y="28.4863" width="44.2582" height="20.8274" rx="10.4137" fill="#D2D4D8"/>
<path fill-rule="evenodd" clip-rule="evenodd" d="M138.32 80.5547H194.945C189.194 80.5548 184.531 85.2172 184.531 90.9684C184.531 96.713 189.183 101.371 194.925 101.382H138.34C144.082 101.371 148.734 96.713 148.734 90.9684C148.734 85.2172 144.071 80.555 138.32 80.5547V80.5547Z" fill="#D2D4D8"/>
<rect x="117.492" y="101.382" width="136.68" height="20.8274" rx="10.4137" fill="#D2D4D8"/>
<circle cx="81.0426" cy="111.796" r="10.4137" fill="#D2D4D8"/>
</g>
<circle cx="11.738" cy="136.8" r="2.48415" stroke="#A6A8B1" stroke-width="1.6561"/>
<circle cx="77.156" cy="17.5603" r="2.48415" stroke="#A6A8B1" stroke-width="1.6561"/>
<circle cx="204.675" cy="4.31221" r="2.48415" stroke="#20263D" stroke-width="1.6561"/>
<circle cx="204.675" cy="4.31221" r="2.48415" stroke="#A6A8B1" stroke-width="1.6561"/>
<circle cx="254.359" cy="122.723" r="1.6561" fill="#D2D4D8"/>
<circle cx="151.644" cy="19.6561" r="1.6561" fill="#D2D4D8"/>
<g filter="url(#filter0_d_6888_100580)">
<rect x="73.9883" y="8" width="100" height="100" rx="6" fill="white"/>
</g>
<path fill-rule="evenodd" clip-rule="evenodd" d="M112.203 29.5485C115.329 26.4229 119.568 24.667 123.988 24.667C128.409 24.667 132.648 26.4229 135.773 29.5485C138.899 32.6742 140.655 36.9134 140.655 41.3337V51.3337H143.988C146.64 51.3337 149.184 52.3872 151.059 54.2626C152.935 56.138 153.988 58.6815 153.988 61.3337V81.3337C153.988 83.9858 152.935 86.5294 151.059 88.4047C149.184 90.2801 146.64 91.3337 143.988 91.3337H103.988C101.336 91.3337 98.7926 90.2801 96.9172 88.4047C95.0418 86.5294 93.9883 83.9858 93.9883 81.3337V61.3337C93.9883 58.6815 95.0418 56.138 96.9172 54.2626C98.7926 52.3872 101.336 51.3337 103.988 51.3337H107.322V41.3337C107.322 36.9134 109.078 32.6742 112.203 29.5485ZM113.988 51.3337H133.988V41.3337C133.988 38.6815 132.935 36.138 131.059 34.2626C129.184 32.3872 126.64 31.3337 123.988 31.3337C121.336 31.3337 118.793 32.3872 116.917 34.2626C115.042 36.138 113.988 38.6815 113.988 41.3337V51.3337ZM103.988 58.0003C103.104 58.0003 102.256 58.3515 101.631 58.9766C101.006 59.6018 100.655 60.4496 100.655 61.3337V81.3337C100.655 82.2177 101.006 83.0656 101.631 83.6907C102.256 84.3158 103.104 84.667 103.988 84.667H143.988C144.872 84.667 145.72 84.3158 146.345 83.6907C146.97 83.0656 147.322 82.2177 147.322 81.3337V61.3337C147.322 60.4496 146.97 59.6018 146.345 58.9766C145.72 58.3515 144.872 58.0003 143.988 58.0003H103.988ZM123.988 64.667C125.829 64.667 127.322 66.1594 127.322 68.0003V74.667C127.322 76.5079 125.829 78.0003 123.988 78.0003C122.147 78.0003 120.655 76.5079 120.655 74.667V68.0003C120.655 66.1594 122.147 64.667 123.988 64.667Z" fill="#D2D4D8"/>
<path d="M58.4133 143.064L66.0933 128.504H70.8933L63.0213 143.064H58.4133ZM58.4133 145.624V143.064L60.0133 141.816H76.1413V145.624H58.4133ZM69.0373 151V136.664H73.3253V151H69.0373ZM87.5498 151.32C85.7791 151.32 84.1791 150.84 82.7498 149.88C81.3204 148.92 80.1791 147.565 79.3258 145.816C78.4938 144.067 78.0778 142.029 78.0778 139.704C78.0778 137.379 78.4938 135.352 79.3258 133.624C80.1578 131.896 81.2778 130.552 82.6858 129.592C84.1151 128.632 85.7044 128.152 87.4538 128.152C89.2458 128.152 90.8458 128.632 92.2538 129.592C93.6831 130.552 94.8138 131.907 95.6458 133.656C96.4778 135.384 96.8938 137.421 96.8938 139.768C96.8938 142.093 96.4778 144.131 95.6458 145.88C94.8138 147.608 93.6938 148.952 92.2858 149.912C90.8778 150.851 89.2991 151.32 87.5498 151.32ZM87.4858 147.384C88.5098 147.384 89.3951 147.096 90.1418 146.52C90.8884 145.944 91.4644 145.091 91.8698 143.96C92.2964 142.829 92.5098 141.421 92.5098 139.736C92.5098 138.051 92.2964 136.643 91.8698 135.512C91.4644 134.381 90.8778 133.539 90.1098 132.984C89.3631 132.408 88.4778 132.12 87.4538 132.12C86.4511 132.12 85.5764 132.408 84.8298 132.984C84.0831 133.539 83.4964 134.381 83.0698 135.512C82.6644 136.621 82.4618 138.019 82.4618 139.704C82.4618 141.411 82.6644 142.829 83.0698 143.96C83.4964 145.091 84.0831 145.944 84.8298 146.52C85.5764 147.096 86.4618 147.384 87.4858 147.384ZM106.019 151.32C104.504 151.32 103.117 151.053 101.859 150.52C100.6 149.965 99.5441 149.176 98.6908 148.152L101.571 145.304C101.997 145.944 102.605 146.456 103.395 146.84C104.184 147.224 105.037 147.416 105.955 147.416C106.808 147.416 107.544 147.267 108.163 146.968C108.781 146.648 109.261 146.211 109.603 145.656C109.965 145.08 110.147 144.419 110.147 143.672C110.147 142.883 109.965 142.211 109.603 141.656C109.261 141.101 108.76 140.675 108.099 140.376C107.437 140.077 106.648 139.928 105.731 139.928C105.325 139.928 104.909 139.96 104.483 140.024C104.056 140.067 103.693 140.141 103.395 140.248L105.315 137.816C105.848 137.645 106.371 137.507 106.883 137.4C107.416 137.272 107.907 137.208 108.355 137.208C109.507 137.208 110.541 137.485 111.459 138.04C112.397 138.573 113.133 139.341 113.667 140.344C114.221 141.325 114.499 142.488 114.499 143.832C114.499 145.325 114.147 146.637 113.443 147.768C112.739 148.877 111.747 149.752 110.467 150.392C109.208 151.011 107.725 151.32 106.019 151.32ZM103.395 140.248V137.752L109.155 131.064L114.147 131L108.195 137.816L103.395 140.248ZM99.9388 132.28V128.504H114.147V131L110.595 132.28H99.9388ZM124.199 151V128.504H128.551V151H124.199ZM127.399 151V147.16H139.847V151H127.399ZM127.399 141.368V137.656H138.727V141.368H127.399ZM127.399 132.344V128.504H139.687V132.344H127.399ZM143.001 151V135.544H147.193V151H143.001ZM147.193 142.456L145.561 141.368C145.753 139.469 146.307 137.976 147.225 136.888C148.142 135.779 149.465 135.224 151.193 135.224C151.939 135.224 152.611 135.352 153.209 135.608C153.806 135.843 154.35 136.237 154.841 136.792L152.217 139.8C151.982 139.544 151.694 139.352 151.353 139.224C151.033 139.096 150.659 139.032 150.233 139.032C149.337 139.032 148.601 139.32 148.025 139.896C147.47 140.451 147.193 141.304 147.193 142.456ZM156.251 151V135.544H160.443V151H156.251ZM160.443 142.456L158.811 141.368C159.003 139.469 159.557 137.976 160.475 136.888C161.392 135.779 162.715 135.224 164.443 135.224C165.189 135.224 165.861 135.352 166.459 135.608C167.056 135.843 167.6 136.237 168.091 136.792L165.467 139.8C165.232 139.544 164.944 139.352 164.603 139.224C164.283 139.096 163.909 139.032 163.483 139.032C162.587 139.032 161.851 139.32 161.275 139.896C160.72 140.451 160.443 141.304 160.443 142.456ZM176.39 151.32C174.832 151.32 173.424 150.968 172.166 150.264C170.928 149.539 169.936 148.568 169.19 147.352C168.464 146.115 168.102 144.739 168.102 143.224C168.102 141.709 168.464 140.355 169.19 139.16C169.915 137.944 170.907 136.984 172.166 136.28C173.424 135.555 174.822 135.192 176.358 135.192C177.936 135.192 179.344 135.555 180.582 136.28C181.84 136.984 182.832 137.944 183.558 139.16C184.283 140.355 184.646 141.709 184.646 143.224C184.646 144.739 184.283 146.115 183.558 147.352C182.832 148.568 181.84 149.539 180.582 150.264C179.344 150.968 177.947 151.32 176.39 151.32ZM176.358 147.416C177.147 147.416 177.84 147.245 178.438 146.904C179.056 146.541 179.526 146.051 179.846 145.432C180.187 144.792 180.358 144.067 180.358 143.256C180.358 142.445 180.187 141.731 179.846 141.112C179.504 140.493 179.035 140.013 178.438 139.672C177.84 139.309 177.147 139.128 176.358 139.128C175.59 139.128 174.907 139.309 174.31 139.672C173.712 140.013 173.243 140.493 172.902 141.112C172.56 141.731 172.39 142.445 172.39 143.256C172.39 144.067 172.56 144.792 172.902 145.432C173.243 146.051 173.712 146.541 174.31 146.904C174.907 147.245 175.59 147.416 176.358 147.416ZM187.344 151V135.544H191.536V151H187.344ZM191.536 142.456L189.904 141.368C190.096 139.469 190.651 137.976 191.568 136.888C192.486 135.779 193.808 135.224 195.536 135.224C196.283 135.224 196.955 135.352 197.552 135.608C198.15 135.843 198.694 136.237 199.184 136.792L196.56 139.8C196.326 139.544 196.038 139.352 195.696 139.224C195.376 139.096 195.003 139.032 194.576 139.032C193.68 139.032 192.944 139.32 192.368 139.896C191.814 140.451 191.536 141.304 191.536 142.456Z" fill="#BCBEC5"/>
<defs>
<filter id="filter0_d_6888_100580" x="60.7326" y="0.0466166" width="126.511" height="126.511" filterUnits="userSpaceOnUse" color-interpolation-filters="sRGB">
<feFlood flood-opacity="0" result="BackgroundImageFix"/>
<feColorMatrix in="SourceAlpha" type="matrix" values="0 0 0 0 0 0 0 0 0 0 0 0 0 0 0 0 0 0 127 0" result="hardAlpha"/>
<feOffset dy="5.30226"/>
<feGaussianBlur stdDeviation="6.62782"/>
<feComposite in2="hardAlpha" operator="out"/>
<feColorMatrix type="matrix" values="0 0 0 0 0.12549 0 0 0 0 0.14902 0 0 0 0 0.239216 0 0 0 0.15 0"/>
<feBlend mode="normal" in2="BackgroundImageFix" result="effect1_dropShadow_6888_100580"/>
<feBlend mode="normal" in="SourceGraphic" in2="effect1_dropShadow_6888_100580" result="shape"/>
</filter>
</defs>
</svg>
