<?xml version="1.0" standalone="yes"?>
<svg xmlns="http://www.w3.org/2000/svg" width="464" height="518">
<path style="fill:#ededed; stroke:none;" d="M0 0L0 518L464 518L464 0L0 0z"/>
<path style="fill:#f5dbc3; stroke:none;" d="M223 83.4244C188.578 87.9462 151.342 99.7998 144.464 139C141.638 155.105 147.427 171.821 144.852 187.985C144.05 193.019 138.617 195.774 136.105 200.015C131.379 207.992 130.875 218.321 133.75 227C135.846 233.329 139.951 238.968 146 242C149.543 243.776 154.447 243.46 156.698 247.148C162.31 256.344 164.793 266.914 171.209 276C186.679 297.91 212.36 309.987 239 306.714C261.989 303.889 282.031 288.418 293.796 269C297.964 262.12 299.519 253.924 303.558 247.148C305.914 243.196 311.238 244.042 315 242.16C322.075 238.623 327.287 231.584 329.239 224C331.308 215.966 330.178 205.819 325.2 199.04C322.336 195.141 316.967 193.113 316.148 187.985C313.196 169.504 320.043 150.604 315.076 132C305.352 95.5769 257.289 78.92 223 83.4244z"/>
<path style="fill:#d9bfab; stroke:none;" d="M276 289C256.844 305.327 231.121 311.924 207 303.302C198.928 300.416 192.562 294.762 185 291C185 305.409 183.758 321.016 195.04 331.907C221.955 357.887 278.324 343.88 277.035 303C276.891 298.419 277.79 293.267 276 289M183 308L184 309L183 308z"/>
<path style="fill:#b5b4b3; stroke:none;" d="M184 308L185 309L184 308z"/>
<path style="fill:#f5dbc3; stroke:none;" d="M179 309L180 310L179 309z"/>
<path style="fill:#b5b4b3; stroke:none;" d="M180.667 309.333L181.333 309.667L180.667 309.333z"/>
<path style="fill:#8d8d8d; stroke:none;" d="M23 432C65.8759 441.919 107.008 454.382 151 459.715C247.874 471.456 346.085 462.223 439 432C432.024 406.494 418.704 375.875 399.91 357.09C377.769 334.957 348.114 327.724 319 319.849C305.245 316.128 291.096 311.074 277 309C274.905 357.055 187.083 356.776 185 309C171.499 310.818 158.156 315.657 145 319.116C116.768 326.539 88.4364 333.141 66 353.174C45.2743 371.679 29.4043 405.038 23 432z"/>
<path style="fill:#b5b4b3; stroke:none;" d="M280 309L281 310L280 309z"/>
<path style="fill:#d9bfab; stroke:none;" d="M281 309L282 310L281 309z"/>
<path style="fill:#f5dbc3; stroke:none;" d="M175 310L176 311L175 310z"/>
<path style="fill:#b5b4b3; stroke:none;" d="M176.667 310.333L177.333 310.667L176.667 310.333M283.667 310.333L284.333 310.667L283.667 310.333z"/>
<path style="fill:#f5dbc3; stroke:none;" d="M285 310L286 311L285 310z"/>
<path style="fill:#d9bfab; stroke:none;" d="M172 311L173 312L172 311z"/>
<path style="fill:#b5b4b3; stroke:none;" d="M173 311L174 312L173 311M185 311L185 315L186 315L185 311M287.667 311.333L288.333 311.667L287.667 311.333z"/>
<path style="fill:#d9bfab; stroke:none;" d="M168 312L169 313L168 312z"/>
<path style="fill:#b5b4b3; stroke:none;" d="M169 312L170 313L169 312M276 312L276 315L277 315L276 312M291 312L292 313L291 312z"/>
<path style="fill:#d9bfab; stroke:none;" d="M292 312L293 313L292 312M164 313L165 314L164 313z"/>
<path style="fill:#b5b4b3; stroke:none;" d="M165 313L166 314L165 313M295 313L296 314L295 313z"/>
<path style="fill:#d9bfab; stroke:none;" d="M296 313L297 314L296 313z"/>
<path style="fill:#f5dbc3; stroke:none;" d="M160 314L161 315L160 314z"/>
<path style="fill:#b5b4b3; stroke:none;" d="M161.667 314.333L162.333 314.667L161.667 314.333M299 314L300 315L299 314z"/>
<path style="fill:#f5dbc3; stroke:none;" d="M300 314L301 315L300 314z"/>
<path style="fill:#d9bfab; stroke:none;" d="M157 315L158 316L157 315z"/>
<path style="fill:#b5b4b3; stroke:none;" d="M158 315L159 316L158 315M302.667 315.333L303.333 315.667L302.667 315.333z"/>
<path style="fill:#d9bfab; stroke:none;" d="M153 316L154 317L153 316z"/>
<path style="fill:#b5b4b3; stroke:none;" d="M154 316L155 317L154 316M306 316L307 317L306 316z"/>
<path style="fill:#d9bfab; stroke:none;" d="M307 316L308 317L307 316M149 317L150 318L149 317z"/>
<path style="fill:#b5b4b3; stroke:none;" d="M150 317L151 318L150 317M186.333 317.667L186.667 318.333L186.333 317.667M310 317L311 318L310 317z"/>
<path style="fill:#d9bfab; stroke:none;" d="M311 317L312 318L311 317z"/>
<path style="fill:#f5dbc3; stroke:none;" d="M145 318L146 319L145 318z"/>
<path style="fill:#b5b4b3; stroke:none;" d="M146.667 318.333L147.333 318.667L146.667 318.333M275 318L276 319L275 318M314 318L315 319L314 318z"/>
<path style="fill:#f5dbc3; stroke:none;" d="M315 318L316 319L315 318z"/>
<path style="fill:#b5b4b3; stroke:none;" d="M142.667 319.333L143.333 319.667L142.667 319.333M317.667 319.333L318.333 319.667L317.667 319.333z"/>
<path style="fill:#d9bfab; stroke:none;" d="M138 320L139 321L138 320z"/>
<path style="fill:#b5b4b3; stroke:none;" d="M139 320L140 321L139 320M187 320L188 321L187 320M321 320L322 321L321 320z"/>
<path style="fill:#d9bfab; stroke:none;" d="M322 320L323 321L322 320M134 321L135 322L134 321z"/>
<path style="fill:#b5b4b3; stroke:none;" d="M135 321L136 322L135 321M274 321L275 322L274 321M325 321L326 322L325 321z"/>
<path style="fill:#d9bfab; stroke:none;" d="M326 321L327 322L326 321z"/>
<path style="fill:#f5dbc3; stroke:none;" d="M130 322L131 323L130 322z"/>
<path style="fill:#b5b4b3; stroke:none;" d="M131 322L132 323L131 322M329 322L330 323L329 322z"/>
<path style="fill:#f5dbc3; stroke:none;" d="M330 322L331 323L330 322z"/>
<path style="fill:#b5b4b3; stroke:none;" d="M127.667 323.333L128.333 323.667L127.667 323.333M188 323L189 324L188 323M273 323L274 324L273 323M332.667 323.333L333.333 323.667L332.667 323.333z"/>
<path style="fill:#f5dbc3; stroke:none;" d="M334 323L335 324L334 323z"/>
<path style="fill:#d9bfab; stroke:none;" d="M123 324L124 325L123 324z"/>
<path style="fill:#b5b4b3; stroke:none;" d="M124 324L125 325L124 324M336.667 324.333L337.333 324.667L336.667 324.333z"/>
<path style="fill:#d9bfab; stroke:none;" d="M119 325L120 326L119 325z"/>
<path style="fill:#b5b4b3; stroke:none;" d="M120 325L121 326L120 325M272 325L273 326L272 325M340 325L341 326L340 325z"/>
<path style="fill:#d9bfab; stroke:none;" d="M341 325L342 326L341 325z"/>
<path style="fill:#b5b4b3; stroke:none;" d="M116 326L117 327L116 326M190 326L191 327L190 326M344 326L345 327L344 326z"/>
<path style="fill:#f5dbc3; stroke:none;" d="M345 326L346 327L345 326z"/>
<path style="fill:#b5b4b3; stroke:none;" d="M113 327L114 328L113 327M347 327L348 328L347 327z"/>
<path style="fill:#f5dbc3; stroke:none;" d="M348 327L349 328L348 327M109 328L110 329L109 328z"/>
<path style="fill:#b5b4b3; stroke:none;" d="M110 328L111 329L110 328M270 328L271 329L270 328M350 328L351 329L350 328z"/>
<path style="fill:#d9bfab; stroke:none;" d="M351 328L352 329L351 328z"/>
<path style="fill:#f5dbc3; stroke:none;" d="M106 329L107 330L106 329z"/>
<path style="fill:#b5b4b3; stroke:none;" d="M107 329L108 330L107 329M269 329L270 330L269 329M353 329L354 330L353 329z"/>
<path style="fill:#d9bfab; stroke:none;" d="M354 329L355 330L354 329z"/>
<path style="fill:#b5b4b3; stroke:none;" d="M104 330L105 331L104 330M193 330L194 331L193 330M268 330L269 331L268 330M356 330L357 331L356 330z"/>
<path style="fill:#d9bfab; stroke:none;" d="M357 330L358 331L357 330M101 331L102 332L101 331z"/>
<path style="fill:#b5b4b3; stroke:none;" d="M102 331L103 332L102 331M194 331L195 332L194 331M267 331L268 332L267 331M359 331L360 332L359 331M99 332L100 333L99 332M195 332L196 333L195 332M266 332L267 333L266 332M361 332L362 333L361 332z"/>
<path style="fill:#f5dbc3; stroke:none;" d="M96 333L97 334L96 333z"/>
<path style="fill:#b5b4b3; stroke:none;" d="M97 333L98 334L97 333M196 333L197 334L196 333M265 333L266 334L265 333M363 333L364 334L363 333z"/>
<path style="fill:#f5dbc3; stroke:none;" d="M364 333L365 334L364 333z"/>
<path style="fill:#d9bfab; stroke:none;" d="M94 334L95 335L94 334z"/>
<path style="fill:#b5b4b3; stroke:none;" d="M264 334L265 335L264 334z"/>
<path style="fill:#d9bfab; stroke:none;" d="M366 334L367 335L366 334z"/>
<path style="fill:#b5b4b3; stroke:none;" d="M92 335L93 336L92 335M199 335L200 336L199 335M368 335L369 336L368 335M90 336L91 337L90 336M200 336L201 337L200 336M261 336L262 337L261 336M370 336L371 337L370 336z"/>
<path style="fill:#d9bfab; stroke:none;" d="M88 337L89 338L88 337z"/>
<path style="fill:#b5b4b3; stroke:none;" d="M202 337L203 338L202 337M372 337L373 338L372 337z"/>
<path style="fill:#f5dbc3; stroke:none;" d="M86 338L87 339L86 338z"/>
<path style="fill:#b5b4b3; stroke:none;" d="M87 338L88 339L87 338M204 338L205 339L204 338M258 338L259 339L258 338z"/>
<path style="fill:#d9bfab; stroke:none;" d="M374 338L375 339L374 338z"/>
<path style="fill:#b5b4b3; stroke:none;" d="M85 339L86 340L85 339M206 339L207 340L206 339M256 339L257 340L256 339M375 339L376 340L375 339M83 340L84 341L83 340M208 340L209 341L208 340M253 340L254 341L253 340M377 340L378 341L377 340z"/>
<path style="fill:#d9bfab; stroke:none;" d="M81 341L82 342L81 341z"/>
<path style="fill:#b5b4b3; stroke:none;" d="M211 341L212 342L211 341M250.667 341.333L251.333 341.667L250.667 341.333M379 341L380 342L379 341M80 342L81 343L80 342M214 342L215 343L214 342M247.667 342.333L248.333 342.667L247.667 342.333z"/>
<path style="fill:#d9bfab; stroke:none;" d="M381 342L382 343L381 342M78 343L79 344L78 343z"/>
<path style="fill:#b5b4b3; stroke:none;" d="M218.667 343.333L219.333 343.667L218.667 343.333M242 343L242 344L245 344L242 343M382 343L383 344L382 343M77 344L78 345L77 344M224 344L224 345L239 345L224 344z"/>
<path style="fill:#f5dbc3; stroke:none;" d="M75 345L76 346L75 345z"/>
<path style="fill:#b5b4b3; stroke:none;" d="M385 345L386 346L385 345M74 346L75 347L74 346M386 346L387 347L386 346M73 347L74 348L73 347z"/>
<path style="fill:#d9bfab; stroke:none;" d="M388 347L389 348L388 347M71 348L72 349L71 348z"/>
<path style="fill:#b5b4b3; stroke:none;" d="M389 348L390 349L389 348M70 349L71 350L70 349M69 350L70 351L69 350z"/>
<path style="fill:#d9bfab; stroke:none;" d="M392 350L393 351L392 350z"/>
<path style="fill:#b5b4b3; stroke:none;" d="M393 351L394 352L393 351M394 352L395 353L394 352M395 353L396 354L395 353z"/>
<path style="fill:#f5dbc3; stroke:none;" d="M62 356L63 357L62 356z"/>
<path style="fill:#d9bfab; stroke:none;" d="M61 357L62 358L61 357M60 358L61 359L60 358z"/>
<path style="fill:#f5dbc3; stroke:none;" d="M59 359L60 360L59 359z"/>
<path style="fill:#b5b4b3; stroke:none;" d="M403 361L404 362L403 361M404 362L405 363L404 362M405 363L406 364L405 363z"/>
<path style="fill:#d9bfab; stroke:none;" d="M406 364L407 365L406 364z"/>
<path style="fill:#b5b4b3; stroke:none;" d="M54 365L55 366L54 365z"/>
<path style="fill:#d9bfab; stroke:none;" d="M407 365L408 366L407 365z"/>
<path style="fill:#b5b4b3; stroke:none;" d="M53 366L54 367L53 366z"/>
<path style="fill:#f5dbc3; stroke:none;" d="M408 366L409 367L408 366z"/>
<path style="fill:#b5b4b3; stroke:none;" d="M52 367L53 368L52 367M51 369L52 370L51 369M410 369L411 370L410 369M50 370L51 371L50 370z"/>
<path style="fill:#f5dbc3; stroke:none;" d="M411 370L412 371L411 370z"/>
<path style="fill:#b5b4b3; stroke:none;" d="M49 372L50 373L49 372M412 372L413 373L412 372M48 373L49 374L48 373z"/>
<path style="fill:#f5dbc3; stroke:none;" d="M413 373L414 374L413 373z"/>
<path style="fill:#b5b4b3; stroke:none;" d="M47 375L48 376L47 375M414 375L415 376L414 375z"/>
<path style="fill:#d9bfab; stroke:none;" d="M46 376L47 377L46 376z"/>
<path style="fill:#f5dbc3; stroke:none;" d="M415 376L416 377L415 376z"/>
<path style="fill:#b5b4b3; stroke:none;" d="M45 378L46 379L45 378M416 378L417 379L416 378M44 380L45 381L44 380M417 380L418 381L417 380M43 382L44 383L43 382z"/>
<path style="fill:#d9bfab; stroke:none;" d="M418 382L419 383L418 382z"/>
<path style="fill:#b5b4b3; stroke:none;" d="M42 384L43 385L42 384z"/>
<path style="fill:#d9bfab; stroke:none;" d="M419 384L420 385L419 384z"/>
<path style="fill:#b5b4b3; stroke:none;" d="M41 386L42 387L41 386z"/>
<path style="fill:#d9bfab; stroke:none;" d="M420 386L421 387L420 386z"/>
<path style="fill:#b5b4b3; stroke:none;" d="M40 388L41 389L40 388z"/>
<path style="fill:#d9bfab; stroke:none;" d="M421 388L422 389L421 388z"/>
<path style="fill:#b5b4b3; stroke:none;" d="M421 389L422 390L421 389z"/>
<path style="fill:#d9bfab; stroke:none;" d="M39 390L40 391L39 390z"/>
<path style="fill:#b5b4b3; stroke:none;" d="M39 391L40 392L39 391M422 391L423 392L422 391M38 393L39 394L38 393M423 393L424 394L423 393z"/>
<path style="fill:#d9bfab; stroke:none;" d="M37 395L38 396L37 395M424 395L425 396L424 395z"/>
<path style="fill:#b5b4b3; stroke:none;" d="M424 396L425 397L424 396z"/>
<path style="fill:#f5dbc3; stroke:none;" d="M36 397L37 398L36 397z"/>
<path style="fill:#b5b4b3; stroke:none;" d="M36 398L37 399L36 398M425 398L426 399L425 398M35 400L36 401L35 400z"/>
<path style="fill:#d9bfab; stroke:none;" d="M426 400L427 401L426 400M34 402L35 403L34 402z"/>
<path style="fill:#f5dbc3; stroke:none;" d="M427 402L428 403L427 402z"/>
<path style="fill:#b5b4b3; stroke:none;" d="M34 403L35 404L34 403M427 403L428 404L427 403M33 405L34 406L33 405M428 405L429 406L428 405M32 407L33 408L32 407z"/>
<path style="fill:#d9bfab; stroke:none;" d="M429 407L430 408L429 407z"/>
<path style="fill:#b5b4b3; stroke:none;" d="M429 408L430 409L429 408z"/>
<path style="fill:#f5dbc3; stroke:none;" d="M31 409L32 410L31 409z"/>
<path style="fill:#b5b4b3; stroke:none;" d="M31 410L32 411L31 410M430 410L431 411L430 410M30 412L31 413L30 412z"/>
<path style="fill:#d9bfab; stroke:none;" d="M431 412L432 413L431 412M29 414L30 415L29 414z"/>
<path style="fill:#f5dbc3; stroke:none;" d="M432 414L433 415L432 414z"/>
<path style="fill:#b5b4b3; stroke:none;" d="M29 415L30 416L29 415M432 415L433 416L432 415z"/>
<path style="fill:#f5dbc3; stroke:none;" d="M28 416L29 417L28 416z"/>
<path style="fill:#b5b4b3; stroke:none;" d="M28 417L29 418L28 417M433 417L434 418L433 417M27 419L28 420L27 419z"/>
<path style="fill:#d9bfab; stroke:none;" d="M434 419L435 420L434 419z"/>
<path style="fill:#b5b4b3; stroke:none;" d="M434 420L435 421L434 420z"/>
<path style="fill:#d9bfab; stroke:none;" d="M26 421L27 422L26 421z"/>
<path style="fill:#b5b4b3; stroke:none;" d="M26 422L27 423L26 422M435 422L436 423L435 422M25 424L26 425L25 424M436 424L437 425L436 424z"/>
<path style="fill:#d9bfab; stroke:none;" d="M24 426L25 427L24 426M437 426L438 427L437 426z"/>
<path style="fill:#b5b4b3; stroke:none;" d="M437 427L438 428L437 427z"/>
<path style="fill:#f5dbc3; stroke:none;" d="M23 428L24 429L23 428z"/>
<path style="fill:#b5b4b3; stroke:none;" d="M23 429L24 430L23 429M438 429L439 430L438 429M22 431L23 432L22 431z"/>
<path style="fill:#d9bfab; stroke:none;" d="M439 431L440 432L439 431z"/>
<path style="fill:#f5dbc3; stroke:none;" d="M24 432L25 433L24 432z"/>
<path style="fill:#b5b4b3; stroke:none;" d="M25 432L26 433L25 432M437 432L438 433L437 432z"/>
<path style="fill:#f5dbc3; stroke:none;" d="M27 433L28 434L27 433z"/>
<path style="fill:#b5b4b3; stroke:none;" d="M28 433L29 434L28 433M434 433L435 434L434 433z"/>
<path style="fill:#f5dbc3; stroke:none;" d="M30 434L31 435L30 434z"/>
<path style="fill:#b5b4b3; stroke:none;" d="M31 434L32 435L31 434M431 434L432 435L431 434z"/>
<path style="fill:#f5dbc3; stroke:none;" d="M33 435L34 436L33 435z"/>
<path style="fill:#b5b4b3; stroke:none;" d="M34 435L35 436L34 435M427 435L428 436L427 435z"/>
<path style="fill:#d9bfab; stroke:none;" d="M428 435L429 436L428 435z"/>
<path style="fill:#b5b4b3; stroke:none;" d="M37.6667 436.333L38.3333 436.667L37.6667 436.333M424 436L425 437L424 436z"/>
<path style="fill:#d9bfab; stroke:none;" d="M425 436L426 437L425 436M40 437L41 438L40 437z"/>
<path style="fill:#b5b4b3; stroke:none;" d="M41 437L42 438L41 437M421 437L422 438L421 437z"/>
<path style="fill:#d9bfab; stroke:none;" d="M422 437L423 438L422 437z"/>
<path style="fill:#f5dbc3; stroke:none;" d="M43 438L44 439L43 438z"/>
<path style="fill:#b5b4b3; stroke:none;" d="M44 438L45 439L44 438M418 438L419 439L418 438z"/>
<path style="fill:#d9bfab; stroke:none;" d="M419 438L420 439L419 438M47 439L48 440L47 439z"/>
<path style="fill:#b5b4b3; stroke:none;" d="M48 439L49 440L48 439M414.667 439.333L415.333 439.667L414.667 439.333z"/>
<path style="fill:#f5dbc3; stroke:none;" d="M50 440L51 441L50 440z"/>
<path style="fill:#b5b4b3; stroke:none;" d="M51 440L52 441L51 440M411 440L412 441L411 440z"/>
<path style="fill:#d9bfab; stroke:none;" d="M412 440L413 441L412 440M54 441L55 442L54 441z"/>
<path style="fill:#b5b4b3; stroke:none;" d="M55 441L56 442L55 441M407.667 441.333L408.333 441.667L407.667 441.333z"/>
<path style="fill:#f5dbc3; stroke:none;" d="M57 442L58 443L57 442z"/>
<path style="fill:#b5b4b3; stroke:none;" d="M58.6667 442.333L59.3333 442.667L58.6667 442.333M404 442L405 443L404 442z"/>
<path style="fill:#f5dbc3; stroke:none;" d="M405 442L406 443L405 442M61 443L62 444L61 443z"/>
<path style="fill:#b5b4b3; stroke:none;" d="M62.6667 443.333L63.3333 443.667L62.6667 443.333M400 443L401 444L400 443z"/>
<path style="fill:#d9bfab; stroke:none;" d="M401 443L402 444L401 443z"/>
<path style="fill:#b5b4b3; stroke:none;" d="M66.6667 444.333L67.3333 444.667L66.6667 444.333M396.667 444.333L397.333 444.667L396.667 444.333z"/>
<path style="fill:#f5dbc3; stroke:none;" d="M398 444L399 445L398 444z"/>
<path style="fill:#d9bfab; stroke:none;" d="M70 445L71 446L70 445z"/>
<path style="fill:#b5b4b3; stroke:none;" d="M71 445L72 446L71 445M392.667 445.333L393.333 445.667L392.667 445.333z"/>
<path style="fill:#f5dbc3; stroke:none;" d="M394 445L395 446L394 445z"/>
<path style="fill:#d9bfab; stroke:none;" d="M74 446L75 447L74 446z"/>
<path style="fill:#b5b4b3; stroke:none;" d="M75 446L76 447L75 446M389 446L390 447L389 446z"/>
<path style="fill:#f5dbc3; stroke:none;" d="M390 446L391 447L390 446z"/>
<path style="fill:#b5b4b3; stroke:none;" d="M79.6667 447.333L80.3333 447.667L79.6667 447.333M385 447L386 448L385 447z"/>
<path style="fill:#f5dbc3; stroke:none;" d="M386 447L387 448L386 447M83 448L84 449L83 448z"/>
<path style="fill:#b5b4b3; stroke:none;" d="M84.6667 448.333L85.3333 448.667L84.6667 448.333M381 448L382 449L381 448z"/>
<path style="fill:#f5dbc3; stroke:none;" d="M382 448L383 449L382 448z"/>
<path style="fill:#d9bfab; stroke:none;" d="M88 449L89 450L88 449z"/>
<path style="fill:#b5b4b3; stroke:none;" d="M89 449L90 450L89 449M376.667 449.333L377.333 449.667L376.667 449.333z"/>
<path style="fill:#f5dbc3; stroke:none;" d="M378 449L379 450L378 449z"/>
<path style="fill:#d9bfab; stroke:none;" d="M93 450L94 451L93 450z"/>
<path style="fill:#b5b4b3; stroke:none;" d="M94 450L95 451L94 450M371.667 450.333L372.333 450.667L371.667 450.333z"/>
<path style="fill:#f5dbc3; stroke:none;" d="M373 450L374 451L373 450z"/>
<path style="fill:#d9bfab; stroke:none;" d="M98 451L99 452L98 451z"/>
<path style="fill:#b5b4b3; stroke:none;" d="M99 451L100 452L99 451M366.667 451.333L367.333 451.667L366.667 451.333z"/>
<path style="fill:#f5dbc3; stroke:none;" d="M368 451L369 452L368 451M103 452L104 453L103 452z"/>
<path style="fill:#b5b4b3; stroke:none;" d="M104.667 452.333L105.333 452.667L104.667 452.333M361.667 452.333L362.333 452.667L361.667 452.333z"/>
<path style="fill:#f5dbc3; stroke:none;" d="M363 452L364 453L363 452z"/>
<path style="fill:#d9bfab; stroke:none;" d="M109 453L110 454L109 453z"/>
<path style="fill:#b5b4b3; stroke:none;" d="M110 453L111 454L110 453M356.667 453.333L357.333 453.667L356.667 453.333z"/>
<path style="fill:#f5dbc3; stroke:none;" d="M358 453L359 454L358 453M114 454L115 455L114 454z"/>
<path style="fill:#b5b4b3; stroke:none;" d="M115.667 454.333L116.333 454.667L115.667 454.333M350.667 454.333L351.333 454.667L350.667 454.333z"/>
<path style="fill:#d9bfab; stroke:none;" d="M352 454L353 455L352 454M120 455L121 456L120 455z"/>
<path style="fill:#b5b4b3; stroke:none;" d="M121 455L122 456L121 455M345 455L346 456L345 455z"/>
<path style="fill:#d9bfab; stroke:none;" d="M346 455L347 456L346 455M126 456L127 457L126 456z"/>
<path style="fill:#b5b4b3; stroke:none;" d="M127.667 456.333L128.333 456.667L127.667 456.333M339.667 456.333L340.333 456.667L339.667 456.333z"/>
<path style="fill:#d9bfab; stroke:none;" d="M341 456L342 457L341 456M133 457L134 458L133 457z"/>
<path style="fill:#b5b4b3; stroke:none;" d="M134.667 457.333L135.333 457.667L134.667 457.333M332.667 457.333L333.333 457.667L332.667 457.333z"/>
<path style="fill:#d9bfab; stroke:none;" d="M334 457L335 458L334 457M140 458L141 459L140 458z"/>
<path style="fill:#b5b4b3; stroke:none;" d="M141.667 458.333L142.333 458.667L141.667 458.333M325.667 458.333L326.333 458.667L325.667 458.333z"/>
<path style="fill:#d9bfab; stroke:none;" d="M327 458L328 459L327 458M147 459L148 460L147 459z"/>
<path style="fill:#b5b4b3; stroke:none;" d="M148.667 459.333L149.333 459.667L148.667 459.333M318.667 459.333L319.333 459.667L318.667 459.333z"/>
<path style="fill:#d9bfab; stroke:none;" d="M320 459L321 460L320 459M156 460L157 461L156 460z"/>
<path style="fill:#b5b4b3; stroke:none;" d="M157 460L157 461L160 461L157 460M309 460L309 461L312 461L309 460z"/>
<path style="fill:#d9bfab; stroke:none;" d="M312 460L313 461L312 460M166 461L167 462L166 461z"/>
<path style="fill:#b5b4b3; stroke:none;" d="M167 461L167 462L170 462L167 461M301.667 461.333L302.333 461.667L301.667 461.333z"/>
<path style="fill:#d9bfab; stroke:none;" d="M303 461L304 462L303 461z"/>
<path style="fill:#f5dbc3; stroke:none;" d="M304 461L305 462L304 461z"/>
<path style="fill:#d9bfab; stroke:none;" d="M176 462L177 463L176 462z"/>
<path style="fill:#b5b4b3; stroke:none;" d="M177 462L177 463L181 463L177 462M288 462L288 463L292 463L288 462z"/>
<path style="fill:#d9bfab; stroke:none;" d="M292 462L293 463L292 462z"/>
<path style="fill:#f5dbc3; stroke:none;" d="M293 462L294 463L293 462M189 463L190 464L189 463z"/>
<path style="fill:#d9bfab; stroke:none;" d="M190.667 463.333L191.333 463.667L190.667 463.333z"/>
<path style="fill:#b5b4b3; stroke:none;" d="M192 463L192 464L197 464L192 463M273 463L273 464L278 464L273 463z"/>
<path style="fill:#d9bfab; stroke:none;" d="M278.667 463.333L279.333 463.667L278.667 463.333z"/>
<path style="fill:#f5dbc3; stroke:none;" d="M280 463L281 464L280 463M208.667 464.333L209.333 464.667L208.667 464.333z"/>
<path style="fill:#d9bfab; stroke:none;" d="M210 464L210 465L213 465L210 464z"/>
<path style="fill:#b5b4b3; stroke:none;" d="M213 464L213 465L223 465L213 464M242 464L242 465L255 465L242 464z"/>
<path style="fill:#d9bfab; stroke:none;" d="M255 464L255 465L259 465L255 464z"/>
<path style="fill:#f5dbc3; stroke:none;" d="M259 464L259 465L262 465L259 464z"/>
</svg>
