<svg width="255" height="163" viewBox="0 0 255 163" fill="none" xmlns="http://www.w3.org/2000/svg">
<g opacity="0.25">
<rect x="46.207" y="58.9155" width="177.665" height="20.7169" rx="10.3584" fill="#D2D4D8"/>
<rect x="31.8906" y="141.783" width="133.412" height="20.7169" rx="10.3584" fill="#D2D4D8"/>
<rect y="17.4814" width="133.412" height="20.7169" rx="10.3584" fill="#D2D4D8"/>
<rect x="157.492" y="27.8398" width="44.2536" height="20.7169" rx="10.3584" fill="#D2D4D8"/>
<path fill-rule="evenodd" clip-rule="evenodd" d="M137.316 79.6318H193.935C188.184 79.632 183.523 84.2696 183.523 89.9903C183.523 95.7044 188.174 100.338 193.915 100.349H137.336C143.078 100.338 147.729 95.7044 147.729 89.9903C147.729 84.2696 143.067 79.6321 137.316 79.6319V79.6318Z" fill="#D2D4D8"/>
<rect x="116.492" y="100.349" width="136.666" height="20.7169" rx="10.3584" fill="#D2D4D8"/>
<ellipse cx="80.0454" cy="110.708" rx="10.4126" ry="10.3584" fill="#D2D4D8"/>
</g>
<path d="M13.2339 135.58C13.2339 136.938 12.1258 138.046 10.7497 138.046C9.37359 138.046 8.26555 136.938 8.26555 135.58C8.26555 134.222 9.37359 133.113 10.7497 133.113C12.1258 133.113 13.2339 134.222 13.2339 135.58Z" stroke="#A6A8B1" stroke-width="1.6561"/>
<path d="M78.644 16.9724C78.644 18.3305 77.536 19.4389 76.1599 19.4389C74.7837 19.4389 73.6757 18.3305 73.6757 16.9724C73.6757 15.6143 74.7837 14.5058 76.1599 14.5058C77.536 14.5058 78.644 15.6143 78.644 16.9724Z" stroke="#A6A8B1" stroke-width="1.6561"/>
<path d="M206.152 3.79463C206.152 5.15274 205.044 6.26121 203.668 6.26121C202.292 6.26121 201.184 5.15274 201.184 3.79463C201.184 2.43652 202.292 1.32805 203.668 1.32805C205.044 1.32805 206.152 2.43652 206.152 3.79463Z" stroke="#20263D" stroke-width="1.6561"/>
<path d="M206.152 3.79463C206.152 5.15274 205.044 6.26121 203.668 6.26121C202.292 6.26121 201.184 5.15274 201.184 3.79463C201.184 2.43652 202.292 1.32805 203.668 1.32805C205.044 1.32805 206.152 2.43652 206.152 3.79463Z" stroke="#A6A8B1" stroke-width="1.6561"/>
<ellipse cx="253.344" cy="121.577" rx="1.6561" ry="1.64732" fill="#D2D4D8"/>
<ellipse cx="150.64" cy="19.057" rx="1.6561" ry="1.64732" fill="#D2D4D8"/>
<ellipse cx="123.987" cy="68.139" rx="49.9949" ry="49.7347" fill="white"/>
<path fill-rule="evenodd" clip-rule="evenodd" d="M123.988 34.5681C105.35 34.5681 90.2414 49.5983 90.2414 68.139C90.2414 86.6798 105.35 101.71 123.988 101.71C142.626 101.71 157.735 86.6798 157.735 68.139C157.735 49.5983 142.626 34.5681 123.988 34.5681ZM82.7422 68.139C82.7422 45.4782 101.209 27.1079 123.988 27.1079C146.767 27.1079 165.234 45.4782 165.234 68.139C165.234 90.7999 146.767 109.17 123.988 109.17C101.209 109.17 82.7422 90.7999 82.7422 68.139Z" fill="#D2D4D8"/>
<path fill-rule="evenodd" clip-rule="evenodd" d="M137.887 54.3113C139.351 55.768 139.351 58.1297 137.887 59.5864L115.389 81.9671C113.925 83.4238 111.551 83.4238 110.087 81.9671C108.622 80.5104 108.622 78.1486 110.087 76.6919L132.584 54.3113C134.049 52.8546 136.423 52.8546 137.887 54.3113Z" fill="#D2D4D8"/>
<path fill-rule="evenodd" clip-rule="evenodd" d="M110.087 54.3113C111.551 52.8546 113.925 52.8546 115.389 54.3113L137.887 76.6919C139.351 78.1486 139.351 80.5104 137.887 81.9671C136.423 83.4238 134.049 83.4238 132.584 81.9671L110.087 59.5864C108.622 58.1297 108.622 55.768 110.087 54.3113Z" fill="#D2D4D8"/>
<path d="M91.0559 149.879V127.383H95.4079V149.879H91.0559ZM94.2559 149.879V146.039H106.704V149.879H94.2559ZM94.2559 140.247V136.535H105.584V140.247H94.2559ZM94.2559 131.223V127.383H106.544V131.223H94.2559ZM109.858 149.879V134.423H114.05V149.879H109.858ZM114.05 141.335L112.418 140.247C112.61 138.349 113.165 136.855 114.082 135.767C114.999 134.658 116.322 134.103 118.05 134.103C118.797 134.103 119.469 134.231 120.066 134.487C120.663 134.722 121.207 135.117 121.698 135.671L119.074 138.679C118.839 138.423 118.551 138.231 118.21 138.103C117.89 137.975 117.517 137.911 117.09 137.911C116.194 137.911 115.458 138.199 114.882 138.775C114.327 139.33 114.05 140.183 114.05 141.335ZM123.108 149.879V134.423H127.3V149.879H123.108ZM127.3 141.335L125.668 140.247C125.86 138.349 126.415 136.855 127.332 135.767C128.249 134.658 129.572 134.103 131.3 134.103C132.047 134.103 132.719 134.231 133.316 134.487C133.913 134.722 134.457 135.117 134.948 135.671L132.324 138.679C132.089 138.423 131.801 138.231 131.46 138.103C131.14 137.975 130.767 137.911 130.34 137.911C129.444 137.911 128.708 138.199 128.132 138.775C127.577 139.33 127.3 140.183 127.3 141.335ZM143.247 150.199C141.69 150.199 140.282 149.847 139.023 149.143C137.786 148.418 136.794 147.447 136.047 146.231C135.322 144.994 134.959 143.618 134.959 142.103C134.959 140.589 135.322 139.234 136.047 138.039C136.772 136.823 137.764 135.863 139.023 135.159C140.282 134.434 141.679 134.071 143.215 134.071C144.794 134.071 146.202 134.434 147.439 135.159C148.698 135.863 149.69 136.823 150.415 138.039C151.14 139.234 151.503 140.589 151.503 142.103C151.503 143.618 151.14 144.994 150.415 146.231C149.69 147.447 148.698 148.418 147.439 149.143C146.202 149.847 144.804 150.199 143.247 150.199ZM143.215 146.295C144.004 146.295 144.698 146.125 145.295 145.783C145.914 145.421 146.383 144.93 146.703 144.311C147.044 143.671 147.215 142.946 147.215 142.135C147.215 141.325 147.044 140.61 146.703 139.991C146.362 139.373 145.892 138.893 145.295 138.551C144.698 138.189 144.004 138.007 143.215 138.007C142.447 138.007 141.764 138.189 141.167 138.551C140.57 138.893 140.1 139.373 139.759 139.991C139.418 140.61 139.247 141.325 139.247 142.135C139.247 142.946 139.418 143.671 139.759 144.311C140.1 144.93 140.57 145.421 141.167 145.783C141.764 146.125 142.447 146.295 143.215 146.295ZM154.202 149.879V134.423H158.394V149.879H154.202ZM158.394 141.335L156.762 140.247C156.954 138.349 157.508 136.855 158.426 135.767C159.343 134.658 160.666 134.103 162.394 134.103C163.14 134.103 163.812 134.231 164.41 134.487C165.007 134.722 165.551 135.117 166.042 135.671L163.418 138.679C163.183 138.423 162.895 138.231 162.554 138.103C162.234 137.975 161.86 137.911 161.434 137.911C160.538 137.911 159.802 138.199 159.226 138.775C158.671 139.33 158.394 140.183 158.394 141.335Z" fill="#BCBEC5"/>
</svg>
