<svg width="257" height="163" viewBox="0 0 257 163" fill="none" xmlns="http://www.w3.org/2000/svg">
<g opacity="0.25">
<rect x="47.1992" y="58.7275" width="177.683" height="20.8274" rx="10.4137" fill="#D2D4D8"/>
<rect x="32.8789" y="142.037" width="133.425" height="20.8274" rx="10.4137" fill="#D2D4D8"/>
<rect x="0.988281" y="17.0723" width="133.425" height="20.8274" rx="10.4137" fill="#D2D4D8"/>
<rect x="158.496" y="27.4863" width="44.2582" height="20.8274" rx="10.4137" fill="#D2D4D8"/>
<path fill-rule="evenodd" clip-rule="evenodd" d="M138.32 79.5547H194.945C189.194 79.5548 184.531 84.2172 184.531 89.9684C184.531 95.713 189.183 100.371 194.925 100.382H138.34C144.082 100.371 148.734 95.713 148.734 89.9684C148.734 84.2172 144.071 79.555 138.32 79.5547V79.5547Z" fill="#D2D4D8"/>
<rect x="117.492" y="100.382" width="136.68" height="20.8274" rx="10.4137" fill="#D2D4D8"/>
<circle cx="81.0426" cy="110.796" r="10.4137" fill="#D2D4D8"/>
</g>
<circle cx="11.738" cy="135.8" r="2.48415" stroke="#A6A8B1" stroke-width="1.6561"/>
<circle cx="77.156" cy="16.5603" r="2.48415" stroke="#A6A8B1" stroke-width="1.6561"/>
<circle cx="204.675" cy="3.31221" r="2.48415" stroke="#20263D" stroke-width="1.6561"/>
<circle cx="204.675" cy="3.31221" r="2.48415" stroke="#A6A8B1" stroke-width="1.6561"/>
<circle cx="254.359" cy="121.723" r="1.6561" fill="#D2D4D8"/>
<circle cx="151.644" cy="18.6561" r="1.6561" fill="#D2D4D8"/>
<circle cx="124.988" cy="66" r="50" fill="white"/>
<path fill-rule="evenodd" clip-rule="evenodd" d="M125.487 32.6663C116.646 32.6663 108.168 36.1782 101.917 42.4294C95.6655 48.6807 92.1536 57.1591 92.1536 65.9997C92.1536 70.3771 93.0158 74.7116 94.691 78.7558C96.3661 82.8 98.8215 86.4746 101.917 89.5699C105.012 92.6652 108.687 95.1205 112.731 96.7957C116.775 98.4708 121.11 99.333 125.487 99.333C129.864 99.333 134.199 98.4708 138.243 96.7957C142.287 95.1205 145.962 92.6652 149.057 89.5699C152.152 86.4746 154.608 82.8 156.283 78.7558C157.958 74.7116 158.82 70.3771 158.82 65.9997C158.82 57.1591 155.308 48.6807 149.057 42.4294C142.806 36.1782 134.328 32.6663 125.487 32.6663ZM96.0242 36.5369C103.838 28.7229 114.436 24.333 125.487 24.333C136.538 24.333 147.136 28.7229 154.95 36.5369C162.764 44.3509 167.154 54.949 167.154 65.9997C167.154 71.4714 166.076 76.8896 163.982 81.9448C161.888 87.0001 158.819 91.5933 154.95 95.4625C151.081 99.3316 146.487 102.401 141.432 104.495C136.377 106.589 130.959 107.666 125.487 107.666C120.015 107.666 114.597 106.589 109.542 104.495C104.487 102.401 99.8933 99.3316 96.0242 95.4625C92.1551 91.5933 89.0859 87 86.992 81.9448C84.8981 76.8896 83.8203 71.4714 83.8203 65.9997C83.8203 54.949 88.2102 44.3509 96.0242 36.5369ZM108.82 57.6663C108.82 55.3652 110.686 53.4997 112.987 53.4997H113.029C115.33 53.4997 117.195 55.3652 117.195 57.6663C117.195 59.9675 115.33 61.833 113.029 61.833H112.987C110.686 61.833 108.82 59.9675 108.82 57.6663ZM133.82 57.6663C133.82 55.3652 135.686 53.4997 137.987 53.4997H138.029C140.33 53.4997 142.195 55.3652 142.195 57.6663C142.195 59.9675 140.33 61.833 138.029 61.833H137.987C135.686 61.833 133.82 59.9675 133.82 57.6663ZM125.487 82.6699C122.172 82.6699 118.994 83.9863 116.649 86.3297C115.022 87.9567 112.384 87.9563 110.757 86.3288C109.13 84.7014 109.13 82.0632 110.758 80.4363C114.665 76.5306 119.963 74.3366 125.487 74.3366C131.011 74.3366 136.309 76.5306 140.216 80.4363C141.844 82.0632 141.844 84.7014 140.217 86.3288C138.59 87.9563 135.952 87.9567 134.324 86.3297C131.98 83.9863 128.802 82.6699 125.487 82.6699Z" fill="#D2D4D8"/>
<path d="M45.4453 148.32C43.6319 148.32 42.0746 148.011 40.7733 147.392C39.4933 146.773 38.3306 145.845 37.2853 144.608L40.1653 141.728C40.8266 142.603 41.5946 143.285 42.4693 143.776C43.3439 144.245 44.4106 144.48 45.6693 144.48C46.7999 144.48 47.6959 144.256 48.3573 143.808C49.0399 143.36 49.3813 142.741 49.3813 141.952C49.3813 141.269 49.1893 140.715 48.8053 140.288C48.4213 139.861 47.9093 139.499 47.2693 139.2C46.6506 138.901 45.9573 138.635 45.1893 138.4C44.4426 138.144 43.6853 137.856 42.9173 137.536C42.1706 137.216 41.4773 136.821 40.8373 136.352C40.2186 135.861 39.7173 135.243 39.3333 134.496C38.9493 133.728 38.7573 132.768 38.7573 131.616C38.7573 130.251 39.0879 129.088 39.7493 128.128C40.4106 127.168 41.3173 126.432 42.4693 125.92C43.6213 125.408 44.9226 125.152 46.3733 125.152C47.9093 125.152 49.2959 125.44 50.5333 126.016C51.7706 126.592 52.7839 127.339 53.5733 128.256L50.6933 131.136C50.0319 130.411 49.3493 129.877 48.6453 129.536C47.9626 129.195 47.1839 129.024 46.3093 129.024C45.3066 129.024 44.5173 129.216 43.9413 129.6C43.3653 129.984 43.0773 130.539 43.0773 131.264C43.0773 131.883 43.2693 132.384 43.6533 132.768C44.0373 133.152 44.5386 133.483 45.1573 133.76C45.7973 134.037 46.4906 134.304 47.2373 134.56C48.0053 134.816 48.7626 135.104 49.5093 135.424C50.2773 135.744 50.9706 136.16 51.5893 136.672C52.2293 137.184 52.7413 137.845 53.1253 138.656C53.5093 139.445 53.7013 140.427 53.7013 141.6C53.7013 143.691 52.9653 145.333 51.4933 146.528C50.0213 147.723 48.0053 148.32 45.4453 148.32ZM63.955 148.32C62.3337 148.32 60.8937 147.979 59.635 147.296C58.3764 146.592 57.3737 145.632 56.627 144.416C55.9017 143.2 55.539 141.813 55.539 140.256C55.539 138.72 55.891 137.355 56.595 136.16C57.3204 134.944 58.3017 133.984 59.539 133.28C60.7764 132.555 62.1524 132.192 63.667 132.192C65.1604 132.192 66.4724 132.533 67.603 133.216C68.755 133.877 69.651 134.795 70.291 135.968C70.9524 137.12 71.283 138.432 71.283 139.904C71.283 140.181 71.2617 140.469 71.219 140.768C71.1977 141.045 71.1444 141.365 71.059 141.728L58.067 141.76V138.624L69.107 138.592L67.411 139.904C67.3684 138.987 67.1977 138.219 66.899 137.6C66.6217 136.981 66.2057 136.512 65.651 136.192C65.1177 135.851 64.4564 135.68 63.667 135.68C62.835 135.68 62.1097 135.872 61.491 136.256C60.8724 136.619 60.3924 137.141 60.051 137.824C59.731 138.485 59.571 139.275 59.571 140.192C59.571 141.131 59.7417 141.952 60.083 142.656C60.4457 143.339 60.9577 143.872 61.619 144.256C62.2804 144.619 63.0484 144.8 63.923 144.8C64.7124 144.8 65.427 144.672 66.067 144.416C66.707 144.139 67.2617 143.733 67.731 143.2L70.195 145.664C69.4484 146.539 68.531 147.2 67.443 147.648C66.3764 148.096 65.2137 148.32 63.955 148.32ZM73.8755 148V132.544H78.0675V148H73.8755ZM78.0675 139.456L76.4355 138.368C76.6275 136.469 77.1822 134.976 78.0995 133.888C79.0169 132.779 80.3395 132.224 82.0675 132.224C82.8142 132.224 83.4862 132.352 84.0835 132.608C84.6809 132.843 85.2249 133.237 85.7155 133.792L83.0915 136.8C82.8569 136.544 82.5689 136.352 82.2275 136.224C81.9075 136.096 81.5342 136.032 81.1075 136.032C80.2115 136.032 79.4755 136.32 78.8995 136.896C78.3449 137.451 78.0675 138.304 78.0675 139.456ZM92.0558 148L85.2398 132.544H89.8478L94.7438 145.28H92.4718L97.3998 132.544H101.848L95.0638 148H92.0558ZM110.705 148.32C109.084 148.32 107.644 147.979 106.385 147.296C105.126 146.592 104.124 145.632 103.377 144.416C102.652 143.2 102.289 141.813 102.289 140.256C102.289 138.72 102.641 137.355 103.345 136.16C104.07 134.944 105.052 133.984 106.289 133.28C107.526 132.555 108.902 132.192 110.417 132.192C111.91 132.192 113.222 132.533 114.353 133.216C115.505 133.877 116.401 134.795 117.041 135.968C117.702 137.12 118.033 138.432 118.033 139.904C118.033 140.181 118.012 140.469 117.969 140.768C117.948 141.045 117.894 141.365 117.809 141.728L104.817 141.76V138.624L115.857 138.592L114.161 139.904C114.118 138.987 113.948 138.219 113.649 137.6C113.372 136.981 112.956 136.512 112.401 136.192C111.868 135.851 111.206 135.68 110.417 135.68C109.585 135.68 108.86 135.872 108.241 136.256C107.622 136.619 107.142 137.141 106.801 137.824C106.481 138.485 106.321 139.275 106.321 140.192C106.321 141.131 106.492 141.952 106.833 142.656C107.196 143.339 107.708 143.872 108.369 144.256C109.03 144.619 109.798 144.8 110.673 144.8C111.462 144.8 112.177 144.672 112.817 144.416C113.457 144.139 114.012 143.733 114.481 143.2L116.945 145.664C116.198 146.539 115.281 147.2 114.193 147.648C113.126 148.096 111.964 148.32 110.705 148.32ZM120.626 148V132.544H124.818V148H120.626ZM124.818 139.456L123.186 138.368C123.378 136.469 123.932 134.976 124.85 133.888C125.767 132.779 127.09 132.224 128.818 132.224C129.564 132.224 130.236 132.352 130.834 132.608C131.431 132.843 131.975 133.237 132.466 133.792L129.842 136.8C129.607 136.544 129.319 136.352 128.978 136.224C128.658 136.096 128.284 136.032 127.858 136.032C126.962 136.032 126.226 136.32 125.65 136.896C125.095 137.451 124.818 138.304 124.818 139.456ZM141.199 148V125.504H145.551V148H141.199ZM144.399 148V144.16H156.847V148H144.399ZM144.399 138.368V134.656H155.727V138.368H144.399ZM144.399 129.344V125.504H156.687V129.344H144.399ZM160.001 148V132.544H164.193V148H160.001ZM164.193 139.456L162.561 138.368C162.753 136.469 163.307 134.976 164.225 133.888C165.142 132.779 166.465 132.224 168.193 132.224C168.939 132.224 169.611 132.352 170.209 132.608C170.806 132.843 171.35 133.237 171.841 133.792L169.217 136.8C168.982 136.544 168.694 136.352 168.353 136.224C168.033 136.096 167.659 136.032 167.233 136.032C166.337 136.032 165.601 136.32 165.025 136.896C164.47 137.451 164.193 138.304 164.193 139.456ZM173.251 148V132.544H177.443V148H173.251ZM177.443 139.456L175.811 138.368C176.003 136.469 176.557 134.976 177.475 133.888C178.392 132.779 179.715 132.224 181.443 132.224C182.189 132.224 182.861 132.352 183.459 132.608C184.056 132.843 184.6 133.237 185.091 133.792L182.467 136.8C182.232 136.544 181.944 136.352 181.603 136.224C181.283 136.096 180.909 136.032 180.483 136.032C179.587 136.032 178.851 136.32 178.275 136.896C177.72 137.451 177.443 138.304 177.443 139.456ZM193.39 148.32C191.832 148.32 190.424 147.968 189.166 147.264C187.928 146.539 186.936 145.568 186.19 144.352C185.464 143.115 185.102 141.739 185.102 140.224C185.102 138.709 185.464 137.355 186.19 136.16C186.915 134.944 187.907 133.984 189.166 133.28C190.424 132.555 191.822 132.192 193.358 132.192C194.936 132.192 196.344 132.555 197.582 133.28C198.84 133.984 199.832 134.944 200.558 136.16C201.283 137.355 201.646 138.709 201.646 140.224C201.646 141.739 201.283 143.115 200.558 144.352C199.832 145.568 198.84 146.539 197.582 147.264C196.344 147.968 194.947 148.32 193.39 148.32ZM193.358 144.416C194.147 144.416 194.84 144.245 195.438 143.904C196.056 143.541 196.526 143.051 196.846 142.432C197.187 141.792 197.358 141.067 197.358 140.256C197.358 139.445 197.187 138.731 196.846 138.112C196.504 137.493 196.035 137.013 195.438 136.672C194.84 136.309 194.147 136.128 193.358 136.128C192.59 136.128 191.907 136.309 191.31 136.672C190.712 137.013 190.243 137.493 189.902 138.112C189.56 138.731 189.39 139.445 189.39 140.256C189.39 141.067 189.56 141.792 189.902 142.432C190.243 143.051 190.712 143.541 191.31 143.904C191.907 144.245 192.59 144.416 193.358 144.416ZM204.344 148V132.544H208.536V148H204.344ZM208.536 139.456L206.904 138.368C207.096 136.469 207.651 134.976 208.568 133.888C209.486 132.779 210.808 132.224 212.536 132.224C213.283 132.224 213.955 132.352 214.552 132.608C215.15 132.843 215.694 133.237 216.184 133.792L213.56 136.8C213.326 136.544 213.038 136.352 212.696 136.224C212.376 136.096 212.003 136.032 211.576 136.032C210.68 136.032 209.944 136.32 209.368 136.896C208.814 137.451 208.536 138.304 208.536 139.456Z" fill="#BCBEC5"/>
</svg>
