<svg width="312" height="48" viewBox="0 0 312 48" fill="none" xmlns="http://www.w3.org/2000/svg">
    <path d="M32.185 32.548a11.914 11.914 0 1 1-8.238-20.437 11.401 11.401 0 0 1 7.884 3.055l-3.509 4.828a5.656 5.656 0 0 0-4.326-1.872 5.754 5.754 0 0 0-4.178 1.705 5.597 5.597 0 0 0-1.744 4.148 5.913 5.913 0 0 0 5.912 5.913 5.568 5.568 0 0 0 4.336-2.06l3.863 4.72zM67.621 35.219h-6.385l-1.261-3.479a11.984 11.984 0 0 1-17.531.72 11.52 11.52 0 0 1-3.45-8.416A11.825 11.825 0 0 1 46.83 12.87c1.312-.487 2.7-.744 4.1-.758a11.58 11.58 0 0 1 6.838 2.197 11.747 11.747 0 0 1 4.336 5.726l5.518 15.185zm-10.84-11.195a5.577 5.577 0 0 0-2.532-4.927 5.784 5.784 0 0 0-3.38-.985 5.47 5.47 0 0 0-4.809 2.513 5.913 5.913 0 0 0-1.074 3.4 5.518 5.518 0 0 0 2.543 4.818 5.854 5.854 0 0 0 7.518-.64 5.657 5.657 0 0 0 1.754-4.178h-.02zM86.463 18.112a5.756 5.756 0 0 0-4.178 1.705 5.607 5.607 0 0 0-1.735 4.158V35.22h-6.01V23.975a11.37 11.37 0 0 1 3.468-8.415 11.56 11.56 0 0 1 8.455-3.45v6.002zM130.442 23.976a11.908 11.908 0 0 1-7.271 11.316 11.91 11.91 0 0 1-13.183-2.672 11.922 11.922 0 0 1-3.364-8.644 11.378 11.378 0 0 1 3.489-8.416 12.07 12.07 0 0 1 16.9 0 11.441 11.441 0 0 1 3.429 8.415zm-6.011 0a5.915 5.915 0 0 0-5.913-5.854 5.764 5.764 0 0 0-4.188 1.705 5.616 5.616 0 0 0-1.734 4.148 5.912 5.912 0 0 0 11.825 0h.01zM161.158 23.995a11.826 11.826 0 0 1-11.885 11.894 11.734 11.734 0 0 1-5.912-1.557V48h-6.011V23.995a11.468 11.468 0 0 1 3.449-8.455 12.12 12.12 0 0 1 16.919 0 11.465 11.465 0 0 1 3.44 8.455zm-6.012 0a5.832 5.832 0 1 0-11.398 1.825 5.832 5.832 0 0 0 9.723 2.343 5.7 5.7 0 0 0 1.675-4.168zM179.95 35.22a11.566 11.566 0 0 1-8.465-3.45 11.451 11.451 0 0 1-3.469-8.425V0h6.012v12.11h5.912v5.155h-5.912v6.1a5.65 5.65 0 0 0 1.734 4.158 5.762 5.762 0 0 0 4.188 1.715v5.981zM193.303 6.996a3.483 3.483 0 0 1-.986 2.553 3.387 3.387 0 0 1-2.532 1.044 3.572 3.572 0 0 1-2.559-1.04 3.566 3.566 0 0 1-1.048-2.556 3.393 3.393 0 0 1 1.005-2.543 3.532 3.532 0 0 1 2.562-.985 3.568 3.568 0 0 1 3.558 3.567v-.04zm-.533 28.223h-6.011V12.111h6.011v23.108zM219.791 32.549a11.914 11.914 0 1 1-8.179-20.438 11.431 11.431 0 0 1 7.883 3.055l-3.607 4.828a5.636 5.636 0 0 0-4.316-1.872 5.764 5.764 0 0 0-4.188 1.705 5.597 5.597 0 0 0-1.734 4.149 5.64 5.64 0 0 0 1.724 4.128 5.728 5.728 0 0 0 4.238 1.774 5.558 5.558 0 0 0 4.405-2.05l3.774 4.72zM250.378 23.976a11.908 11.908 0 0 1-7.271 11.316 11.907 11.907 0 0 1-13.182-2.672 11.909 11.909 0 0 1-3.365-8.644 11.41 11.41 0 0 1 3.469-8.416 12.07 12.07 0 0 1 16.9 0 11.427 11.427 0 0 1 3.449 8.415zm-6.011 0a5.911 5.911 0 0 0-5.913-5.854 5.786 5.786 0 0 0-4.178 1.705 5.616 5.616 0 0 0-1.734 4.148 5.915 5.915 0 0 0 5.912 5.913 5.912 5.912 0 0 0 5.913-5.913zM298.063 35.22h-6.011V23.984a5.84 5.84 0 0 0-1.726-4.172 5.836 5.836 0 0 0-4.187-1.69 5.586 5.586 0 0 0-5.035 2.798v14.298h-6.011V23.985a5.623 5.623 0 0 0-1.745-4.129 5.685 5.685 0 0 0-4.148-1.734 5.81 5.81 0 0 0-4.208 1.705 5.618 5.618 0 0 0-1.744 4.158V35.22h-6.011V23.975a11.37 11.37 0 0 1 3.478-8.415 12.013 12.013 0 0 1 16.92.069 12.002 12.002 0 0 1 16.91-.069 11.37 11.37 0 0 1 3.478 8.415l.04 11.244zM311.593 32.046a3.464 3.464 0 0 1-.986 2.552 3.39 3.39 0 0 1-2.532 1.045 3.563 3.563 0 0 1-3.376-2.204 3.576 3.576 0 0 1-.27-1.393 3.389 3.389 0 0 1 1.044-2.542 3.526 3.526 0 0 1 2.562-.986 3.57 3.57 0 0 1 3.558 3.528zm-.66-5.479h-6.012V3.47h6.012v23.098zM8.22 9.302a4.405 4.405 0 0 1-1.34 2.405 12.968 12.968 0 0 0-2.247 4.927 31.977 31.977 0 0 0 0 15.52 12.81 12.81 0 0 0 2.247 4.82 4.434 4.434 0 0 1 1.34 2.404v.551a1.4 1.4 0 0 1-.493 1.094 1.056 1.056 0 0 1-1.064.247c-1.905-.657-3.465-2.454-4.68-5.39A29.681 29.681 0 0 1 .01 24.39a30.273 30.273 0 0 1 1.971-11.53c1.249-2.937 2.809-4.717 4.681-5.341a.985.985 0 0 1 1.064.207A1.36 1.36 0 0 1 8.22 8.81v.492zM97.864 12.82a30.274 30.274 0 0 1 1.971 11.53 29.683 29.683 0 0 1-1.97 11.49c-1.223 2.91-2.783 4.707-4.682 5.39a1.064 1.064 0 0 1-1.084-.246 1.41 1.41 0 0 1-.473-1.094v-.532a4.178 4.178 0 0 1 1.291-2.385 12.228 12.228 0 0 0 2.277-4.828c.656-2.539.968-5.154.926-7.776a29.436 29.436 0 0 0-.926-7.784 12.327 12.327 0 0 0-2.277-4.859 4.148 4.148 0 0 1-1.29-2.404V8.79a1.379 1.379 0 0 1 .472-1.084.985.985 0 0 1 1.084-.207c1.905.637 3.466 2.411 4.681 5.321z" fill="#fff"/>
</svg>
