<svg width="312" height="48" viewBox="0 0 312 48" fill="none" xmlns="http://www.w3.org/2000/svg">
<path d="M32.1852 32.5484C30.7852 33.9155 29.0699 34.9167 27.191 35.4634C25.3121 36.0102 23.3275 36.0858 21.4125 35.6834C19.4975 35.2811 17.711 34.4133 16.2111 33.1566C14.7111 31.8999 13.5437 30.2932 12.8122 28.4782C12.0806 26.6633 11.8073 24.6961 12.0165 22.7505C12.2257 20.8049 12.9109 18.9408 14.0116 17.3229C15.1123 15.705 16.5945 14.3831 18.3274 13.474C20.0602 12.565 21.9903 12.0967 23.9471 12.1107C26.8693 12.081 29.6913 13.1746 31.8305 15.1655L28.3224 19.9941C27.7784 19.3893 27.1103 18.9089 26.3637 18.5858C25.6171 18.2627 24.8097 18.1044 23.9964 18.1218C23.221 18.1098 22.4512 18.2546 21.7332 18.5476C21.0152 18.8405 20.3638 19.2756 19.8182 19.8266C19.2562 20.3597 18.811 21.0038 18.5107 21.7179C18.2105 22.432 18.0618 23.2007 18.074 23.9752C18.074 25.5433 18.6969 27.0472 19.8057 28.156C20.9145 29.2648 22.4184 29.8878 23.9865 29.8878C24.8171 29.8896 25.6376 29.7056 26.3878 29.3493C27.138 28.9929 27.799 28.4732 28.3224 27.8282L32.1852 32.5484Z" fill="white"/>
<path d="M67.6214 35.2189H61.2358L59.9745 31.7404C58.9034 32.9906 57.5863 34.0067 56.1051 34.7253C54.624 35.444 53.0106 35.8497 51.3658 35.9172C49.7209 35.9847 48.0797 35.7125 46.5447 35.1176C45.0097 34.5228 43.6137 33.618 42.4438 32.4597C41.3279 31.3645 40.4466 30.0536 39.8536 28.6068C39.2607 27.16 38.9685 25.6076 38.9948 24.0442C38.9858 21.6004 39.7343 19.2138 41.1371 17.2127C42.54 15.2116 44.5284 13.6943 46.8289 12.8695C48.1412 12.3815 49.5283 12.1248 50.9283 12.1107C53.3832 12.0997 55.7781 12.8692 57.7672 14.3082C59.7747 15.7172 61.2909 17.7192 62.103 20.0335L67.6214 35.2189ZM56.7817 24.0245C56.8254 23.0538 56.6146 22.0885 56.1704 21.2243C55.7262 20.3601 55.0639 19.6269 54.2492 19.0974C53.2523 18.4257 52.0709 18.0812 50.8692 18.112C49.9183 18.0763 48.9745 18.2893 48.1312 18.73C47.2878 19.1707 46.574 19.8238 46.0603 20.6248C45.361 21.6205 44.9859 22.8077 44.9862 24.0245C44.9568 24.979 45.1756 25.9249 45.6212 26.7695C46.0669 27.6141 46.7241 28.3287 47.5286 28.8432C48.6561 29.6405 50.0291 30.0135 51.405 29.8963C52.7809 29.7791 54.071 29.1792 55.0474 28.2027C55.612 27.6648 56.0592 27.016 56.3611 26.2969C56.663 25.5779 56.8129 24.8042 56.8014 24.0245H56.7817Z" fill="white"/>
<path d="M86.4627 18.1119C85.6874 18.0999 84.9176 18.2447 84.1996 18.5377C83.4816 18.8306 82.8302 19.2657 82.2845 19.8167C81.7236 20.3522 81.2798 20.9983 80.9813 21.7141C80.6827 22.4299 80.536 23.1998 80.5502 23.9752V35.2189H74.5391V23.9752C74.5065 22.4092 74.7978 20.8534 75.3947 19.4052C75.9916 17.9571 76.8812 16.6479 78.0078 15.5597C79.109 14.4407 80.4266 13.5579 81.8802 12.9649C83.3339 12.3719 84.8931 12.0813 86.4627 12.1107V18.1119Z" fill="white"/>
<path d="M130.442 23.9754C130.488 25.5681 130.213 27.1538 129.636 28.6387C129.058 30.1236 128.188 31.4775 127.078 32.6203C125.967 33.7631 124.639 34.6715 123.171 35.2918C121.703 35.9121 120.126 36.2318 118.533 36.2318C116.94 36.2318 115.362 35.9121 113.895 35.2918C112.427 34.6715 111.099 33.7631 109.988 32.6203C108.878 31.4775 108.008 30.1236 107.43 28.6387C106.852 27.1538 106.578 25.5681 106.624 23.9754C106.594 22.408 106.888 20.8513 107.489 19.403C108.089 17.9548 108.982 16.6464 110.112 15.5598C112.369 13.348 115.403 12.1091 118.563 12.1091C121.722 12.1091 124.756 13.348 127.013 15.5598C128.129 16.6536 129.01 17.9647 129.599 19.4122C130.189 20.8597 130.476 22.4127 130.442 23.9754ZM124.431 23.9754C124.415 22.4175 123.785 20.9288 122.678 19.8327C121.571 18.7367 120.076 18.1219 118.518 18.122C117.741 18.1092 116.97 18.2536 116.25 18.5466C115.53 18.8395 114.877 19.275 114.33 19.8267C113.771 20.3619 113.329 21.0065 113.03 21.7203C112.732 22.4341 112.584 23.2018 112.596 23.9754C112.596 25.5435 113.219 27.0474 114.327 28.1562C115.436 29.265 116.94 29.8879 118.508 29.8879C120.076 29.8879 121.58 29.265 122.689 28.1562C123.798 27.0474 124.421 25.5435 124.421 23.9754H124.431Z" fill="white"/>
<path d="M161.157 23.995C161.166 25.5587 160.865 27.1087 160.272 28.5552C159.678 30.0018 158.803 31.3161 157.698 32.4223C156.592 33.5285 155.279 34.4044 153.833 34.9995C152.387 35.5946 150.837 35.897 149.273 35.8891C147.199 35.9016 145.159 35.3644 143.361 34.3321V48H137.349V23.995C137.315 22.4247 137.603 20.8639 138.196 19.4096C138.79 17.9552 139.675 16.6381 140.798 15.5401C143.062 13.334 146.098 12.0994 149.258 12.0994C152.419 12.0994 155.455 13.334 157.718 15.5401C158.84 16.6386 159.724 17.956 160.316 19.4104C160.907 20.8648 161.194 22.4253 161.157 23.995ZM155.146 23.995C155.129 22.6468 154.644 21.3462 153.776 20.3147C152.908 19.2831 151.709 18.5842 150.383 18.3368C149.058 18.0894 147.688 18.3089 146.506 18.9578C145.324 19.6067 144.403 20.645 143.9 21.8961C143.397 23.1472 143.343 24.5339 143.748 25.8203C144.152 27.1067 144.989 28.2133 146.117 28.952C147.245 29.6906 148.594 30.0158 149.935 29.872C151.276 29.7282 152.525 29.1244 153.471 28.1634C154.018 27.6184 154.449 26.9679 154.737 26.2513C155.025 25.5348 155.164 24.7671 155.146 23.995Z" fill="white"/>
<path d="M179.95 35.2191C178.378 35.2493 176.818 34.959 175.362 34.366C173.907 33.7731 172.588 32.8898 171.485 31.7701C170.36 30.6782 169.472 29.367 168.876 27.9176C168.279 26.4683 167.986 24.9118 168.016 23.3447V0H174.027V12.1109H179.94V17.2647H174.027V23.3644C174.015 24.1395 174.163 24.9087 174.462 25.6242C174.76 26.3396 175.203 26.986 175.762 27.5229C176.308 28.0769 176.96 28.5145 177.68 28.8092C178.4 29.1039 179.172 29.2496 179.95 29.2376V35.2191Z" fill="white"/>
<path d="M193.302 6.99648C193.32 7.46648 193.241 7.9351 193.072 8.37386C192.902 8.81261 192.646 9.21234 192.317 9.54873C191.991 9.88946 191.597 10.1584 191.161 10.3382C190.725 10.5181 190.256 10.605 189.784 10.5933C189.31 10.5985 188.839 10.5092 188.4 10.3304C187.961 10.1516 187.562 9.88704 187.226 9.55212C186.89 9.21721 186.624 8.81869 186.444 8.37987C186.264 7.94105 186.174 7.47075 186.178 6.99648C186.16 6.52621 186.24 6.05742 186.413 5.61979C186.586 5.18216 186.848 4.78521 187.183 4.45408C187.522 4.12695 187.924 3.8712 188.364 3.70194C188.804 3.53269 189.274 3.45336 189.745 3.46865C190.689 3.47126 191.594 3.84825 192.261 4.51695C192.928 5.18566 193.302 6.09151 193.302 7.0359V6.99648ZM192.77 35.2191H186.759V12.1108H192.77V35.2191Z" fill="white"/>
<path d="M219.791 32.5485C218.389 33.9171 216.671 34.919 214.789 35.4651C212.908 36.0113 210.92 36.0851 209.004 35.6798C207.087 35.2745 205.299 34.4027 203.8 33.1416C202.3 31.8806 201.135 30.2692 200.407 28.4502C199.679 26.6312 199.411 24.6607 199.626 22.7133C199.842 20.7659 200.534 18.9018 201.642 17.2859C202.75 15.6701 204.24 14.3524 205.979 13.4497C207.718 12.547 209.652 12.0871 211.612 12.1107C214.533 12.0841 217.354 13.1772 219.495 15.1656L215.888 19.9941C215.346 19.3901 214.679 18.9101 213.935 18.587C213.19 18.2639 212.384 18.1053 211.572 18.1218C210.795 18.1091 210.024 18.2535 209.304 18.5465C208.584 18.8394 207.931 19.2749 207.384 19.8266C206.823 20.3603 206.38 21.0046 206.081 21.7188C205.783 22.4329 205.636 23.2013 205.65 23.9753C205.641 24.7447 205.789 25.5078 206.086 26.2178C206.382 26.9279 206.821 27.5698 207.374 28.1042C207.919 28.6769 208.578 29.1302 209.307 29.4355C210.036 29.7408 210.821 29.8915 211.612 29.878C212.453 29.8921 213.287 29.715 214.05 29.3599C214.813 29.0048 215.485 28.4811 216.016 27.8283L219.791 32.5485Z" fill="white"/>
<path d="M250.378 23.9754C250.424 25.5681 250.15 27.1538 249.572 28.6387C248.994 30.1236 248.124 31.4775 247.014 32.6203C245.903 33.7631 244.575 34.6715 243.107 35.2918C241.64 35.9121 240.062 36.2318 238.469 36.2318C236.876 36.2318 235.298 35.9121 233.831 35.2918C232.363 34.6715 231.035 33.7631 229.924 32.6203C228.814 31.4775 227.944 30.1236 227.366 28.6387C226.788 27.1538 226.514 25.5681 226.56 23.9754C226.529 22.4096 226.821 20.8543 227.418 19.4064C228.015 17.9586 228.904 16.6491 230.029 15.5598C232.285 13.348 235.319 12.1091 238.479 12.1091C241.639 12.1091 244.672 13.348 246.929 15.5598C248.049 16.6519 248.933 17.9623 249.526 19.4098C250.12 20.8574 250.409 22.4113 250.378 23.9754ZM244.367 23.9754C244.351 22.4175 243.721 20.9288 242.614 19.8327C241.507 18.7367 240.012 18.1219 238.454 18.122C237.679 18.1116 236.91 18.2572 236.192 18.5501C235.474 18.843 234.823 19.2771 234.276 19.8267C233.717 20.3619 233.275 21.0065 232.976 21.7203C232.678 22.4341 232.53 23.2018 232.542 23.9754C232.542 24.7518 232.695 25.5207 232.992 26.238C233.289 26.9554 233.724 27.6072 234.273 28.1562C234.822 28.7052 235.474 29.1407 236.192 29.4379C236.909 29.735 237.678 29.8879 238.454 29.8879C239.231 29.8879 239.999 29.735 240.717 29.4379C241.434 29.1407 242.086 28.7052 242.635 28.1562C243.184 27.6072 243.62 26.9554 243.917 26.238C244.214 25.5207 244.367 24.7518 244.367 23.9754Z" fill="white"/>
<path d="M298.063 35.2191H292.052V23.9852C292.056 23.21 291.905 22.4417 291.609 21.7253C291.312 21.0089 290.876 20.3588 290.326 19.8129C289.775 19.267 289.121 18.8363 288.403 18.5459C287.684 18.2556 286.914 18.1115 286.139 18.122C285.125 18.0871 284.12 18.3292 283.233 18.8222C282.346 19.3153 281.61 20.0407 281.104 20.9206V35.2191H275.092V23.9852C275.101 23.2142 274.95 22.4496 274.65 21.7393C274.35 21.0289 273.907 20.3879 273.348 19.8563C272.811 19.3004 272.166 18.8598 271.453 18.5616C270.739 18.2634 269.973 18.1138 269.2 18.122C268.42 18.1094 267.645 18.2538 266.922 18.5467C266.2 18.8395 265.543 19.2749 264.992 19.8267C264.43 20.3618 263.984 21.0075 263.684 21.7233C263.384 22.439 263.235 23.2092 263.248 23.9852V35.2191H257.237V23.9754C257.206 22.4088 257.499 20.8527 258.098 19.4046C258.696 17.9565 259.587 16.6476 260.715 15.5599C262.974 13.3371 266.02 12.097 269.189 12.11C272.358 12.1229 275.394 13.3877 277.635 15.6288C279.874 13.3883 282.908 12.1237 286.076 12.1108C289.243 12.0979 292.287 13.3377 294.545 15.5599C295.673 16.6476 296.564 17.9565 297.162 19.4046C297.761 20.8527 298.054 22.4088 298.023 23.9754L298.063 35.2191Z" fill="white"/>
<path d="M311.593 32.0461C311.61 32.5161 311.532 32.9847 311.362 33.4235C311.193 33.8622 310.936 34.2619 310.608 34.5983C310.281 34.9391 309.888 35.208 309.451 35.3878C309.015 35.5677 308.547 35.6546 308.075 35.6429C307.597 35.6535 307.123 35.568 306.679 35.3916C306.235 35.2152 305.831 34.9515 305.491 34.616C305.151 34.2806 304.882 33.8803 304.699 33.4388C304.517 32.9973 304.425 32.5237 304.429 32.0461C304.416 31.5729 304.503 31.1024 304.683 30.6646C304.863 30.2268 305.132 29.8314 305.473 29.5037C305.813 29.1766 306.215 28.9208 306.655 28.7515C307.095 28.5823 307.564 28.503 308.036 28.5183C308.973 28.5208 309.872 28.8924 310.538 29.5526C311.204 30.2128 311.583 31.1085 311.593 32.0461ZM310.933 26.5671H304.922V3.46875H310.933V26.5671Z" fill="#A51271"/>
<path d="M8.22006 9.30236C8.04167 10.2264 7.572 11.0691 6.87988 11.7068C5.79257 13.1728 5.02696 14.8517 4.63311 16.6339C3.35856 21.7289 3.35856 27.0594 4.63311 32.1544C5.03681 33.9001 5.80221 35.5417 6.87988 36.9731C7.57036 37.6121 8.03971 38.4542 8.22006 39.3776V39.9294C8.22417 40.1368 8.18208 40.3426 8.09687 40.5318C8.01165 40.721 7.88543 40.8888 7.72735 41.0232C7.58936 41.1575 7.41721 41.2515 7.2296 41.295C7.04198 41.3384 6.84607 41.3296 6.66309 41.2696C4.75793 40.6126 3.19767 38.8159 1.98232 35.8793C0.572269 32.2172 -0.0975994 28.3119 0.0114669 24.3892C-0.0873571 20.4545 0.582087 16.5382 1.98232 12.8597C3.23052 9.92318 4.79078 8.14285 6.66309 7.51875C6.84128 7.4454 7.03707 7.42592 7.22623 7.4627C7.41539 7.49948 7.58962 7.59091 7.72735 7.72568C7.88631 7.85716 8.01328 8.02308 8.09864 8.21088C8.184 8.39868 8.22553 8.60343 8.22006 8.80965V9.30236Z" fill="#A51271"/>
<path d="M97.8639 12.8205C99.2641 16.499 99.9336 20.4152 99.8348 24.3499C99.9438 28.2726 99.274 32.1779 97.8639 35.84C96.642 38.7503 95.0817 40.547 93.1831 41.2303C92.9973 41.2931 92.7977 41.3033 92.6064 41.2599C92.4152 41.2164 92.2396 41.1209 92.0992 40.9839C91.9452 40.8472 91.8231 40.6784 91.7414 40.4895C91.6596 40.3005 91.6203 40.0959 91.6262 39.8901V39.358C91.7794 38.4416 92.2336 37.6025 92.9171 36.9732C94.0222 35.551 94.7995 33.9022 95.1934 32.1447C95.8497 29.6063 96.1613 26.9911 96.1197 24.3696C96.1594 21.745 95.8479 19.1268 95.1934 16.5848C94.8005 14.8179 94.0233 13.1593 92.9171 11.7266C92.2279 11.0937 91.773 10.2463 91.6262 9.32221V8.79008C91.6197 8.58563 91.6588 8.38231 91.7406 8.19484C91.8224 8.00736 91.9449 7.84042 92.0992 7.70611C92.2386 7.56739 92.4163 7.47355 92.6095 7.43667C92.8027 7.39979 93.0024 7.42155 93.1831 7.49916C95.0883 8.13641 96.6486 9.91017 97.8639 12.8205Z" fill="#A51271"/>
</svg>
