<svg width="257" height="163" viewBox="0 0 257 163" fill="none" xmlns="http://www.w3.org/2000/svg">
<g opacity="0.25">
<rect x="47.1992" y="58.7275" width="177.683" height="20.8274" rx="10.4137" fill="#D2D4D8"/>
<rect x="32.8789" y="142.037" width="133.425" height="20.8274" rx="10.4137" fill="#D2D4D8"/>
<rect x="0.988281" y="17.0723" width="133.425" height="20.8274" rx="10.4137" fill="#D2D4D8"/>
<rect x="158.496" y="27.4863" width="44.2582" height="20.8274" rx="10.4137" fill="#D2D4D8"/>
<path fill-rule="evenodd" clip-rule="evenodd" d="M138.32 79.5547H194.945C189.194 79.5548 184.531 84.2172 184.531 89.9684C184.531 95.713 189.183 100.371 194.925 100.382H138.34C144.082 100.371 148.734 95.713 148.734 89.9684C148.734 84.2172 144.071 79.555 138.32 79.5547V79.5547Z" fill="#D2D4D8"/>
<rect x="117.492" y="100.382" width="136.68" height="20.8274" rx="10.4137" fill="#D2D4D8"/>
<circle cx="81.0426" cy="110.796" r="10.4137" fill="#D2D4D8"/>
</g>
<circle cx="11.738" cy="135.8" r="2.48415" stroke="#A6A8B1" stroke-width="1.6561"/>
<circle cx="77.156" cy="16.5603" r="2.48415" stroke="#A6A8B1" stroke-width="1.6561"/>
<circle cx="204.675" cy="3.31221" r="2.48415" stroke="#20263D" stroke-width="1.6561"/>
<circle cx="204.675" cy="3.31221" r="2.48415" stroke="#A6A8B1" stroke-width="1.6561"/>
<circle cx="254.359" cy="121.723" r="1.6561" fill="#D2D4D8"/>
<circle cx="151.644" cy="18.6561" r="1.6561" fill="#D2D4D8"/>
<circle cx="124.988" cy="68" r="50" fill="white"/>
<path fill-rule="evenodd" clip-rule="evenodd" d="M124.988 34.25C106.349 34.25 91.2383 49.3604 91.2383 68C91.2383 86.6396 106.349 101.75 124.988 101.75C143.628 101.75 158.738 86.6396 158.738 68C158.738 49.3604 143.628 34.25 124.988 34.25ZM83.7383 68C83.7383 45.2183 102.207 26.75 124.988 26.75C147.77 26.75 166.238 45.2183 166.238 68C166.238 90.7817 147.77 109.25 124.988 109.25C102.207 109.25 83.7383 90.7817 83.7383 68Z" fill="#D2D4D8"/>
<path fill-rule="evenodd" clip-rule="evenodd" d="M138.89 54.0983C140.354 55.5628 140.354 57.9372 138.89 59.4017L116.39 81.9016C114.925 83.3661 112.551 83.3661 111.087 81.9016C109.622 80.4372 109.622 78.0628 111.087 76.5984L133.587 54.0983C135.051 52.6339 137.425 52.6339 138.89 54.0983Z" fill="#D2D4D8"/>
<path fill-rule="evenodd" clip-rule="evenodd" d="M111.087 54.0983C112.551 52.6339 114.925 52.6339 116.39 54.0983L138.89 76.5984C140.354 78.0628 140.354 80.4372 138.89 81.9016C137.425 83.3661 135.051 83.3661 133.587 81.9016L111.087 59.4017C109.622 57.9372 109.622 55.5628 111.087 54.0983Z" fill="#D2D4D8"/>
<path d="M57.5539 142.064L65.2339 127.504H70.0339L62.1619 142.064H57.5539ZM57.5539 144.624V142.064L59.1539 140.816H75.2819V144.624H57.5539ZM68.1779 150V135.664H72.4659V150H68.1779ZM86.6904 150.32C84.9197 150.32 83.3197 149.84 81.8904 148.88C80.4611 147.92 79.3197 146.565 78.4664 144.816C77.6344 143.067 77.2184 141.029 77.2184 138.704C77.2184 136.379 77.6344 134.352 78.4664 132.624C79.2984 130.896 80.4184 129.552 81.8264 128.592C83.2557 127.632 84.8451 127.152 86.5944 127.152C88.3864 127.152 89.9864 127.632 91.3944 128.592C92.8237 129.552 93.9544 130.907 94.7864 132.656C95.6184 134.384 96.0344 136.421 96.0344 138.768C96.0344 141.093 95.6184 143.131 94.7864 144.88C93.9544 146.608 92.8344 147.952 91.4264 148.912C90.0184 149.851 88.4397 150.32 86.6904 150.32ZM86.6264 146.384C87.6504 146.384 88.5357 146.096 89.2824 145.52C90.0291 144.944 90.6051 144.091 91.0104 142.96C91.4371 141.829 91.6504 140.421 91.6504 138.736C91.6504 137.051 91.4371 135.643 91.0104 134.512C90.6051 133.381 90.0184 132.539 89.2504 131.984C88.5037 131.408 87.6184 131.12 86.5944 131.12C85.5917 131.12 84.7171 131.408 83.9704 131.984C83.2237 132.539 82.6371 133.381 82.2104 134.512C81.8051 135.621 81.6024 137.019 81.6024 138.704C81.6024 140.411 81.8051 141.829 82.2104 142.96C82.6371 144.091 83.2237 144.944 83.9704 145.52C84.7171 146.096 85.6024 146.384 86.6264 146.384ZM97.9914 142.064L105.671 127.504H110.471L102.599 142.064H97.9914ZM97.9914 144.624V142.064L99.5914 140.816H115.719V144.624H97.9914ZM108.615 150V135.664H112.903V150H108.615ZM125.058 150V127.504H129.41V150H125.058ZM128.258 150V146.16H140.706V150H128.258ZM128.258 140.368V136.656H139.586V140.368H128.258ZM128.258 131.344V127.504H140.546V131.344H128.258ZM143.86 150V134.544H148.052V150H143.86ZM148.052 141.456L146.42 140.368C146.612 138.469 147.167 136.976 148.084 135.888C149.001 134.779 150.324 134.224 152.052 134.224C152.799 134.224 153.471 134.352 154.068 134.608C154.665 134.843 155.209 135.237 155.7 135.792L153.076 138.8C152.841 138.544 152.553 138.352 152.212 138.224C151.892 138.096 151.519 138.032 151.092 138.032C150.196 138.032 149.46 138.32 148.884 138.896C148.329 139.451 148.052 140.304 148.052 141.456ZM157.11 150V134.544H161.302V150H157.11ZM161.302 141.456L159.67 140.368C159.862 138.469 160.417 136.976 161.334 135.888C162.251 134.779 163.574 134.224 165.302 134.224C166.049 134.224 166.721 134.352 167.318 134.608C167.915 134.843 168.459 135.237 168.95 135.792L166.326 138.8C166.091 138.544 165.803 138.352 165.462 138.224C165.142 138.096 164.769 138.032 164.342 138.032C163.446 138.032 162.71 138.32 162.134 138.896C161.579 139.451 161.302 140.304 161.302 141.456ZM177.249 150.32C175.692 150.32 174.284 149.968 173.025 149.264C171.788 148.539 170.796 147.568 170.049 146.352C169.324 145.115 168.961 143.739 168.961 142.224C168.961 140.709 169.324 139.355 170.049 138.16C170.774 136.944 171.766 135.984 173.025 135.28C174.284 134.555 175.681 134.192 177.217 134.192C178.796 134.192 180.204 134.555 181.441 135.28C182.7 135.984 183.692 136.944 184.417 138.16C185.142 139.355 185.505 140.709 185.505 142.224C185.505 143.739 185.142 145.115 184.417 146.352C183.692 147.568 182.7 148.539 181.441 149.264C180.204 149.968 178.806 150.32 177.249 150.32ZM177.217 146.416C178.006 146.416 178.7 146.245 179.297 145.904C179.916 145.541 180.385 145.051 180.705 144.432C181.046 143.792 181.217 143.067 181.217 142.256C181.217 141.445 181.046 140.731 180.705 140.112C180.364 139.493 179.894 139.013 179.297 138.672C178.7 138.309 178.006 138.128 177.217 138.128C176.449 138.128 175.766 138.309 175.169 138.672C174.572 139.013 174.102 139.493 173.761 140.112C173.42 140.731 173.249 141.445 173.249 142.256C173.249 143.067 173.42 143.792 173.761 144.432C174.102 145.051 174.572 145.541 175.169 145.904C175.766 146.245 176.449 146.416 177.217 146.416ZM188.204 150V134.544H192.396V150H188.204ZM192.396 141.456L190.764 140.368C190.956 138.469 191.51 136.976 192.428 135.888C193.345 134.779 194.668 134.224 196.396 134.224C197.142 134.224 197.814 134.352 198.412 134.608C199.009 134.843 199.553 135.237 200.044 135.792L197.42 138.8C197.185 138.544 196.897 138.352 196.556 138.224C196.236 138.096 195.862 138.032 195.436 138.032C194.54 138.032 193.804 138.32 193.228 138.896C192.673 139.451 192.396 140.304 192.396 141.456Z" fill="#BCBEC5"/>
</svg>
