<svg width="256" height="169" viewBox="0 0 256 169" fill="none" xmlns="http://www.w3.org/2000/svg">
<g opacity="0.25">
<rect x="46.3875" y="59.1368" width="178.362" height="20.9726" rx="10.4863" fill="#D2D4D8"/>
<rect x="32.0143" y="143.027" width="133.935" height="20.9726" rx="10.4863" fill="#D2D4D8"/>
<rect y="17.1907" width="133.935" height="20.9726" rx="10.4863" fill="#D2D4D8"/>
<rect x="158.108" y="27.677" width="44.4272" height="20.9726" rx="10.4863" fill="#D2D4D8"/>
<path fill-rule="evenodd" clip-rule="evenodd" d="M137.855 101.081C143.628 101.081 148.308 96.3863 148.308 90.595C148.308 84.8309 143.672 80.153 137.936 80.109H194.696C188.922 80.1091 184.242 84.804 184.242 90.5953C184.242 96.3867 188.922 101.081 194.696 101.082H137.855V101.081Z" fill="#D2D4D8"/>
<rect x="116.948" y="101.081" width="137.202" height="20.9726" rx="10.4863" fill="#D2D4D8"/>
<ellipse cx="80.3608" cy="111.567" rx="10.4535" ry="10.4863" fill="#D2D4D8"/>
</g>
<path d="M13.2886 136.747C13.2886 138.135 12.1683 139.255 10.7918 139.255C9.41528 139.255 8.29497 138.135 8.29497 136.747C8.29497 135.36 9.41528 134.24 10.7918 134.24C12.1683 134.24 13.2886 135.36 13.2886 136.747Z" stroke="#A6A8B1" stroke-width="1.6561"/>
<path d="M78.9543 16.6767C78.9543 18.0639 77.834 19.184 76.4575 19.184C75.081 19.184 73.9607 18.0639 73.9607 16.6767C73.9607 15.2896 75.081 14.1695 76.4575 14.1695C77.834 14.1695 78.9543 15.2896 78.9543 16.6767Z" stroke="#A6A8B1" stroke-width="1.6561"/>
<path d="M206.961 3.3353C206.961 4.72247 205.841 5.84256 204.464 5.84256C203.088 5.84256 201.967 4.72247 201.967 3.3353C201.967 1.94814 203.088 0.828052 204.464 0.828052C205.841 0.828052 206.961 1.94814 206.961 3.3353Z" stroke="#20263D" stroke-width="1.6561"/>
<path d="M206.961 3.3353C206.961 4.72247 205.841 5.84256 204.464 5.84256C203.088 5.84256 201.967 4.72247 201.967 3.3353C201.967 1.94814 203.088 0.828052 204.464 0.828052C205.841 0.828052 206.961 1.94814 206.961 3.3353Z" stroke="#A6A8B1" stroke-width="1.6561"/>
<ellipse cx="254.338" cy="122.573" rx="1.66243" ry="1.66765" fill="#D2D4D8"/>
<ellipse cx="36.5609" cy="47.5286" rx="1.66243" ry="1.66765" fill="#D2D4D8"/>
<g filter="url(#filter0_d_3783_19552)">
<rect x="87.3323" y="25.1745" width="99.3781" height="124.865" rx="6" fill="white"/>
</g>
<path opacity="0.5" d="M93 42C93 38.6863 95.6863 36 99 36H174.431C177.745 36 180.431 38.6863 180.431 42V79.0686C180.431 82.3823 177.745 85.0686 174.431 85.0686H99C95.6863 85.0686 93 82.3823 93 79.0686V42Z" fill="#E9E9EC"/>
<path fill-rule="evenodd" clip-rule="evenodd" d="M119.951 55.7607C120.705 55.7607 121.449 55.5643 122.086 55.1618C122.902 54.6471 124.183 53.8839 125.747 53.1076C128.062 51.9504 129.952 51.2024 130.652 50.9256C130.779 50.8754 130.867 50.8406 130.911 50.8218L131.063 50.7565C131.129 50.7284 131.195 50.6771 131.255 50.6304C131.27 50.619 131.285 50.6078 131.299 50.5973C131.401 50.5361 133.993 49.9647 135.931 49.883C137.87 49.8014 143.381 49.6789 147.422 50.0463C151.463 50.4341 160.136 51.8423 160.197 51.9851C160.249 52.1052 160.026 52.2686 159.893 52.3661C159.868 52.3846 159.846 52.4007 159.83 52.4137C159.664 52.5465 159.6 52.7831 159.756 52.9278C160.571 53.6858 162.614 55.5856 162.81 55.7812L162.904 55.8832C162.961 55.945 163.029 55.9968 163.096 56.0486L163.096 56.0486C163.177 56.1103 163.257 56.172 163.32 56.2506C163.349 56.2867 163.431 56.4019 163.526 56.5358C163.658 56.7231 163.826 56.899 163.992 57.0743C164.137 57.2264 164.281 57.378 164.402 57.5363C164.667 57.884 164.676 58.6749 164.681 59.0918V59.092C164.683 59.189 164.684 59.2657 164.687 59.3119C164.709 59.5755 164.823 59.8339 165.033 59.9941C165.269 60.1737 165.549 60.4021 165.606 60.516C165.708 60.7405 165.892 62.2711 165.932 62.7609C165.942 62.8783 165.946 62.9864 165.946 63.0827C165.947 63.2312 165.999 63.3821 166.052 63.5331C166.104 63.6847 166.157 63.8363 166.157 63.9855C166.157 64.2712 165.116 66.3529 164.769 66.6998C164.422 67.0672 164.096 67.1488 163.953 67.1488H163.146C163.071 67.1488 162.997 67.1502 162.923 67.153C162.518 67.1681 162.186 67.468 162.068 67.8555C161.472 69.8056 159.796 71.337 157.644 71.6457C155.188 71.9981 152.88 70.6473 151.916 68.4887C151.83 68.2959 151.551 68.2854 151.34 68.2713C151.034 68.2509 133.115 68.455 128.768 68.6591C124.421 68.8632 122.747 68.8836 122.645 68.8428C122.52 68.7925 122.436 68.6827 122.356 68.5766C122.255 68.4441 122.159 68.3172 121.99 68.3195C121.743 68.3227 121.525 68.4749 121.414 68.6959C120.508 70.5028 118.625 71.7294 116.469 71.694C114.61 71.6635 112.985 70.7025 112.03 69.2621C111.722 68.7978 111.228 68.462 110.671 68.4694C110.549 68.471 110.481 68.5792 110.413 68.6872C110.346 68.7957 110.278 68.904 110.155 68.904C110.053 68.904 108.033 68.6591 107.482 68.5162C106.931 68.3734 106.033 67.8427 105.359 67.3733C104.686 66.9039 104.747 66.659 104.828 66.5978C104.924 66.5264 104.995 66.4229 105 66.304C105.025 65.6842 105.094 63.7714 104.992 63.7202C104.849 63.6589 104.706 63.5977 104.706 63.4753C104.706 63.4613 104.705 63.4303 104.703 63.3867C104.693 63.1101 104.664 62.3249 104.788 62.1487L104.832 62.0857L104.832 62.0857C105.054 61.7691 105.278 61.4497 105.421 61.0909C105.468 60.9718 105.523 60.8596 105.584 60.7813C105.639 60.7087 105.693 60.6331 105.747 60.5573C105.856 60.4039 105.966 60.2494 106.095 60.1167C106.304 59.9021 106.682 59.5996 107.359 59.2506C108.706 58.5567 113.727 56.9445 116.278 56.4138C118.829 55.8832 119.584 55.7812 119.951 55.7607Z" fill="#E9E9EC"/>
<path d="M112.627 97.5588H129.578" stroke="#E9E9EC" stroke-width="4" stroke-linecap="round" stroke-linejoin="round"/>
<path d="M112.627 111.833H157.235" stroke="#E9E9EC" stroke-width="4" stroke-linecap="round" stroke-linejoin="round"/>
<path d="M112.627 125.216H147.422" stroke="#E9E9EC" stroke-width="4" stroke-linecap="round" stroke-linejoin="round"/>
<path d="M95.6765 96.6667L97.4608 98.451L101.029 94.8824" stroke="#D2D4D8" stroke-width="2.5" stroke-linecap="round" stroke-linejoin="round"/>
<path d="M95.6765 110.941L97.4608 112.725L101.029 109.157" stroke="#D2D4D8" stroke-width="2.5" stroke-linecap="round" stroke-linejoin="round"/>
<path d="M95.6765 125.216L97.4608 127L101.029 123.431" stroke="#D2D4D8" stroke-width="2.5" stroke-linecap="round" stroke-linejoin="round"/>
<defs>
<filter id="filter0_d_3783_19552" x="74.0766" y="17.2211" width="125.889" height="151.376" filterUnits="userSpaceOnUse" color-interpolation-filters="sRGB">
<feFlood flood-opacity="0" result="BackgroundImageFix"/>
<feColorMatrix in="SourceAlpha" type="matrix" values="0 0 0 0 0 0 0 0 0 0 0 0 0 0 0 0 0 0 127 0" result="hardAlpha"/>
<feOffset dy="5.30226"/>
<feGaussianBlur stdDeviation="6.62782"/>
<feComposite in2="hardAlpha" operator="out"/>
<feColorMatrix type="matrix" values="0 0 0 0 0.12549 0 0 0 0 0.14902 0 0 0 0 0.239216 0 0 0 0.15 0"/>
<feBlend mode="normal" in2="BackgroundImageFix" result="effect1_dropShadow_3783_19552"/>
<feBlend mode="normal" in="SourceGraphic" in2="effect1_dropShadow_3783_19552" result="shape"/>
</filter>
</defs>
</svg>
