<svg width="250" height="190" viewBox="0 0 250 190" fill="none" xmlns="http://www.w3.org/2000/svg">
<g clip-path="url(#clip0_6316_76190)">
<path d="M250 0H0V190H250V0Z" fill="#E9E9EC"/>
<rect x="147" y="77" width="36" height="44" rx="2" transform="rotate(90 147 77)" stroke="#636777" stroke-width="2"/>
<path d="M127.5 87H122.5L120 90H117C116.47 90 115.961 90.2107 115.586 90.5858C115.211 90.9609 115 91.4696 115 92V101C115 101.53 115.211 102.039 115.586 102.414C115.961 102.789 116.47 103 117 103H133C133.53 103 134.039 102.789 134.414 102.414C134.789 102.039 135 101.53 135 101V92C135 91.4696 134.789 90.9609 134.414 90.5858C134.039 90.2107 133.53 90 133 90H130L127.5 87Z" stroke="#636777" stroke-width="1.5" stroke-linecap="round" stroke-linejoin="round"/>
<path d="M125 99C126.657 99 128 97.6569 128 96C128 94.3431 126.657 93 125 93C123.343 93 122 94.3431 122 96C122 97.6569 123.343 99 125 99Z" stroke="#636777" stroke-width="1.5" stroke-linecap="round" stroke-linejoin="round"/>
</g>
<defs>
<clipPath id="clip0_6316_76190">
<rect width="250" height="190" fill="white"/>
</clipPath>
</defs>
</svg>
