<svg width="250" height="190" viewBox="0 0 250 190" fill="none" xmlns="http://www.w3.org/2000/svg">
<g clip-path="url(#clip0_6218_74331)">
<path d="M250 0H0V190H250V0Z" fill="#E9E9EC"/>
<rect x="85" y="55" width="80" height="80" fill="#E9E9EC"/>
<rect x="147" y="77" width="36" height="44" rx="2" transform="rotate(90 147 77)" stroke="#636777" stroke-width="2"/>
<path d="M133.6 99.5985H137V96.0285C137.001 95.7588 136.906 95.4977 136.731 95.292C136.557 95.0863 136.314 94.9497 136.048 94.9065L130.2 93.9318L127.14 89.8518C127.035 89.7111 126.898 89.5968 126.74 89.5181C126.583 89.4395 126.409 89.3985 126.234 89.3985H118.006C117.583 89.3956 117.168 89.5107 116.808 89.731C116.447 89.9513 116.156 90.2679 115.965 90.6452L115.059 92.4925C114.583 93.4384 114.335 94.4823 114.333 95.5412V99.5985H116.6M127.934 99.5985H122.267H127.934Z" stroke="#636777" stroke-width="1.5" stroke-linecap="round" stroke-linejoin="round"/>
<path d="M119.433 102.999C120.998 102.999 122.267 101.73 122.267 100.165C122.267 98.6006 120.998 97.332 119.433 97.332C117.869 97.332 116.6 98.6006 116.6 100.165C116.6 101.73 117.869 102.999 119.433 102.999Z" stroke="#636777" stroke-width="1.5" stroke-linecap="round" stroke-linejoin="round"/>
<path d="M130.767 102.999C132.332 102.999 133.6 101.73 133.6 100.165C133.6 98.6006 132.332 97.332 130.767 97.332C129.202 97.332 127.934 98.6006 127.934 100.165C127.934 101.73 129.202 102.999 130.767 102.999Z" stroke="#636777" stroke-width="1.5" stroke-linecap="round" stroke-linejoin="round"/>
</g>
<defs>
<clipPath id="clip0_6218_74331">
<rect width="250" height="190" fill="white"/>
</clipPath>
</defs>
</svg>
